<mxfile host="Electron" modified="2024-07-12T23:38:21.846Z" agent="Mozilla/5.0 (Windows NT 10.0; Win64; x64) AppleWebKit/537.36 (KHTML, like Gecko) draw.io/24.2.5 Chrome/120.0.6099.109 Electron/28.1.0 Safari/537.36" etag="YP1JKaLSTJLZiOiE8agX" version="24.2.5" type="device" pages="2">
  <diagram name="Current PRIMRE Data Structure" id="6d6qnCAirxlTySkx6DDX">
    <mxGraphModel dx="3497" dy="1883" grid="1" gridSize="10" guides="1" tooltips="1" connect="1" arrows="1" fold="1" page="1" pageScale="1" pageWidth="850" pageHeight="1100" math="0" shadow="0">
      <root>
        <mxCell id="XLJOTzD1S34jmGUU4nhe-0" />
        <mxCell id="XLJOTzD1S34jmGUU4nhe-1" parent="XLJOTzD1S34jmGUU4nhe-0" />
        <mxCell id="XLJOTzD1S34jmGUU4nhe-6" value="Entry" style="whiteSpace=wrap;html=1;align=center;fillColor=#dae8fc;strokeColor=#6c8ebf;" parent="XLJOTzD1S34jmGUU4nhe-1" vertex="1">
          <mxGeometry x="400" y="135" width="100" height="40" as="geometry" />
        </mxCell>
        <mxCell id="XLJOTzD1S34jmGUU4nhe-17" value="description" style="ellipse;whiteSpace=wrap;html=1;align=center;strokeColor=#82b366;verticalAlign=middle;fontFamily=Helvetica;fontSize=12;fillColor=#d5e8d4;" parent="XLJOTzD1S34jmGUU4nhe-1" vertex="1">
          <mxGeometry x="300" y="70" width="60" height="30" as="geometry" />
        </mxCell>
        <mxCell id="XLJOTzD1S34jmGUU4nhe-18" value="originationDate" style="ellipse;whiteSpace=wrap;html=1;align=center;strokeColor=#82b366;verticalAlign=middle;fontFamily=Helvetica;fontSize=12;fillColor=#d5e8d4;" parent="XLJOTzD1S34jmGUU4nhe-1" vertex="1">
          <mxGeometry x="380" y="70" width="60" height="30" as="geometry" />
        </mxCell>
        <mxCell id="XLJOTzD1S34jmGUU4nhe-19" value="modifiedDate" style="ellipse;whiteSpace=wrap;html=1;align=center;strokeColor=#82b366;verticalAlign=middle;fontFamily=Helvetica;fontSize=12;fillColor=#d5e8d4;" parent="XLJOTzD1S34jmGUU4nhe-1" vertex="1">
          <mxGeometry x="460" y="70" width="60" height="30" as="geometry" />
        </mxCell>
        <mxCell id="XLJOTzD1S34jmGUU4nhe-20" value="Projects" style="whiteSpace=wrap;html=1;align=center;fillColor=#dae8fc;strokeColor=#6c8ebf;" parent="XLJOTzD1S34jmGUU4nhe-1" vertex="1">
          <mxGeometry x="220" y="880" width="100" height="40" as="geometry" />
        </mxCell>
        <mxCell id="XLJOTzD1S34jmGUU4nhe-21" value="Test Sites" style="whiteSpace=wrap;html=1;align=center;fillColor=#dae8fc;strokeColor=#6c8ebf;" parent="XLJOTzD1S34jmGUU4nhe-1" vertex="1">
          <mxGeometry x="590" y="880" width="100" height="40" as="geometry" />
        </mxCell>
        <mxCell id="XLJOTzD1S34jmGUU4nhe-22" value="Organizations" style="whiteSpace=wrap;html=1;align=center;fillColor=#dae8fc;strokeColor=#6c8ebf;" parent="XLJOTzD1S34jmGUU4nhe-1" vertex="1">
          <mxGeometry x="400" y="750" width="100" height="40" as="geometry" />
        </mxCell>
        <mxCell id="XLJOTzD1S34jmGUU4nhe-23" value="Devices" style="whiteSpace=wrap;html=1;align=center;fillColor=#dae8fc;strokeColor=#6c8ebf;" parent="XLJOTzD1S34jmGUU4nhe-1" vertex="1">
          <mxGeometry x="400" y="1000" width="100" height="40" as="geometry" />
        </mxCell>
        <mxCell id="XLJOTzD1S34jmGUU4nhe-24" style="edgeStyle=orthogonalEdgeStyle;rounded=0;orthogonalLoop=1;jettySize=auto;html=1;exitX=0.5;exitY=1;exitDx=0;exitDy=0;entryX=0.5;entryY=0;entryDx=0;entryDy=0;fontFamily=Helvetica;fontSize=12;fontColor=default;" parent="XLJOTzD1S34jmGUU4nhe-1" source="XLJOTzD1S34jmGUU4nhe-26" target="XLJOTzD1S34jmGUU4nhe-20" edge="1">
          <mxGeometry relative="1" as="geometry" />
        </mxCell>
        <mxCell id="XLJOTzD1S34jmGUU4nhe-25" style="edgeStyle=orthogonalEdgeStyle;rounded=0;orthogonalLoop=1;jettySize=auto;html=1;exitX=1;exitY=0.5;exitDx=0;exitDy=0;entryX=0;entryY=0.5;entryDx=0;entryDy=0;fontFamily=Helvetica;fontSize=12;fontColor=default;" parent="XLJOTzD1S34jmGUU4nhe-1" source="XLJOTzD1S34jmGUU4nhe-26" target="XLJOTzD1S34jmGUU4nhe-22" edge="1">
          <mxGeometry relative="1" as="geometry" />
        </mxCell>
        <mxCell id="XLJOTzD1S34jmGUU4nhe-26" value="implement" style="shape=rhombus;perimeter=rhombusPerimeter;whiteSpace=wrap;html=1;align=center;fillColor=#fff2cc;strokeColor=#d6b656;" parent="XLJOTzD1S34jmGUU4nhe-1" vertex="1">
          <mxGeometry x="220" y="740" width="100" height="60" as="geometry" />
        </mxCell>
        <mxCell id="XLJOTzD1S34jmGUU4nhe-27" style="edgeStyle=orthogonalEdgeStyle;rounded=0;orthogonalLoop=1;jettySize=auto;html=1;exitX=0.5;exitY=0;exitDx=0;exitDy=0;entryX=0.5;entryY=1;entryDx=0;entryDy=0;fontFamily=Helvetica;fontSize=12;fontColor=default;" parent="XLJOTzD1S34jmGUU4nhe-1" source="XLJOTzD1S34jmGUU4nhe-28" target="XLJOTzD1S34jmGUU4nhe-22" edge="1">
          <mxGeometry relative="1" as="geometry" />
        </mxCell>
        <mxCell id="XLJOTzD1S34jmGUU4nhe-28" value="develop" style="shape=rhombus;perimeter=rhombusPerimeter;whiteSpace=wrap;html=1;align=center;fillColor=#fff2cc;strokeColor=#d6b656;" parent="XLJOTzD1S34jmGUU4nhe-1" vertex="1">
          <mxGeometry x="400" y="870" width="100" height="60" as="geometry" />
        </mxCell>
        <mxCell id="XLJOTzD1S34jmGUU4nhe-29" style="edgeStyle=orthogonalEdgeStyle;rounded=0;orthogonalLoop=1;jettySize=auto;html=1;exitX=0.5;exitY=0;exitDx=0;exitDy=0;entryX=0.5;entryY=1;entryDx=0;entryDy=0;fontFamily=Helvetica;fontSize=12;fontColor=default;" parent="XLJOTzD1S34jmGUU4nhe-1" source="XLJOTzD1S34jmGUU4nhe-31" target="XLJOTzD1S34jmGUU4nhe-20" edge="1">
          <mxGeometry relative="1" as="geometry" />
        </mxCell>
        <mxCell id="XLJOTzD1S34jmGUU4nhe-30" style="edgeStyle=orthogonalEdgeStyle;rounded=0;orthogonalLoop=1;jettySize=auto;html=1;exitX=1;exitY=0.5;exitDx=0;exitDy=0;entryX=0;entryY=0.5;entryDx=0;entryDy=0;fontFamily=Helvetica;fontSize=12;fontColor=default;" parent="XLJOTzD1S34jmGUU4nhe-1" source="XLJOTzD1S34jmGUU4nhe-31" target="XLJOTzD1S34jmGUU4nhe-23" edge="1">
          <mxGeometry relative="1" as="geometry" />
        </mxCell>
        <mxCell id="XLJOTzD1S34jmGUU4nhe-31" value="deploy" style="shape=rhombus;perimeter=rhombusPerimeter;whiteSpace=wrap;html=1;align=center;fillColor=#fff2cc;strokeColor=#d6b656;" parent="XLJOTzD1S34jmGUU4nhe-1" vertex="1">
          <mxGeometry x="220" y="990" width="100" height="60" as="geometry" />
        </mxCell>
        <mxCell id="XLJOTzD1S34jmGUU4nhe-32" style="edgeStyle=orthogonalEdgeStyle;rounded=0;orthogonalLoop=1;jettySize=auto;html=1;exitX=0.5;exitY=0;exitDx=0;exitDy=0;entryX=0.5;entryY=1;entryDx=0;entryDy=0;fontFamily=Helvetica;fontSize=12;fontColor=default;" parent="XLJOTzD1S34jmGUU4nhe-1" source="XLJOTzD1S34jmGUU4nhe-34" target="XLJOTzD1S34jmGUU4nhe-21" edge="1">
          <mxGeometry relative="1" as="geometry" />
        </mxCell>
        <mxCell id="XLJOTzD1S34jmGUU4nhe-33" style="edgeStyle=orthogonalEdgeStyle;rounded=0;orthogonalLoop=1;jettySize=auto;html=1;exitX=0;exitY=0.5;exitDx=0;exitDy=0;entryX=1;entryY=0.5;entryDx=0;entryDy=0;fontFamily=Helvetica;fontSize=12;fontColor=default;" parent="XLJOTzD1S34jmGUU4nhe-1" source="XLJOTzD1S34jmGUU4nhe-34" target="XLJOTzD1S34jmGUU4nhe-23" edge="1">
          <mxGeometry relative="1" as="geometry" />
        </mxCell>
        <mxCell id="XLJOTzD1S34jmGUU4nhe-34" value="test" style="shape=rhombus;perimeter=rhombusPerimeter;whiteSpace=wrap;html=1;align=center;fillColor=#fff2cc;strokeColor=#d6b656;" parent="XLJOTzD1S34jmGUU4nhe-1" vertex="1">
          <mxGeometry x="590" y="990" width="100" height="60" as="geometry" />
        </mxCell>
        <mxCell id="XLJOTzD1S34jmGUU4nhe-35" style="edgeStyle=orthogonalEdgeStyle;rounded=0;orthogonalLoop=1;jettySize=auto;html=1;exitX=0.5;exitY=1;exitDx=0;exitDy=0;entryX=0.5;entryY=0;entryDx=0;entryDy=0;fontFamily=Helvetica;fontSize=12;fontColor=default;" parent="XLJOTzD1S34jmGUU4nhe-1" source="XLJOTzD1S34jmGUU4nhe-37" target="XLJOTzD1S34jmGUU4nhe-21" edge="1">
          <mxGeometry relative="1" as="geometry" />
        </mxCell>
        <mxCell id="XLJOTzD1S34jmGUU4nhe-36" style="edgeStyle=orthogonalEdgeStyle;rounded=0;orthogonalLoop=1;jettySize=auto;html=1;exitX=0;exitY=0.5;exitDx=0;exitDy=0;fontFamily=Helvetica;fontSize=12;fontColor=default;" parent="XLJOTzD1S34jmGUU4nhe-1" source="XLJOTzD1S34jmGUU4nhe-37" target="XLJOTzD1S34jmGUU4nhe-22" edge="1">
          <mxGeometry relative="1" as="geometry" />
        </mxCell>
        <mxCell id="XLJOTzD1S34jmGUU4nhe-37" value="manage" style="shape=rhombus;perimeter=rhombusPerimeter;whiteSpace=wrap;html=1;align=center;fillColor=#fff2cc;strokeColor=#d6b656;" parent="XLJOTzD1S34jmGUU4nhe-1" vertex="1">
          <mxGeometry x="590" y="740" width="100" height="60" as="geometry" />
        </mxCell>
        <mxCell id="XLJOTzD1S34jmGUU4nhe-38" style="edgeStyle=orthogonalEdgeStyle;rounded=0;orthogonalLoop=1;jettySize=auto;html=1;exitX=0.5;exitY=1;exitDx=0;exitDy=0;entryX=0.5;entryY=0;entryDx=0;entryDy=0;fontFamily=Helvetica;fontSize=12;fontColor=default;" parent="XLJOTzD1S34jmGUU4nhe-1" source="XLJOTzD1S34jmGUU4nhe-28" target="XLJOTzD1S34jmGUU4nhe-23" edge="1">
          <mxGeometry relative="1" as="geometry" />
        </mxCell>
        <mxCell id="6KRJ287aKEshhGryGnyS-0" value="The trouble with combining the tables for tethys and tethys engineering (and MHKDR,&amp;nbsp;&lt;div&gt;for that matter) lies in the author names. The entities from T to TE are not shared.&amp;nbsp;&lt;/div&gt;&lt;div&gt;We also cannot assume that Smith, J. in both is the same person. This connundrum is compounded by&amp;nbsp;&lt;/div&gt;&lt;div&gt;MHKDR using a different convention for author names altogether.&lt;div&gt;&lt;br&gt;&lt;/div&gt;&lt;/div&gt;" style="text;html=1;align=center;verticalAlign=middle;resizable=0;points=[];autosize=1;strokeColor=none;fillColor=none;fontFamily=Helvetica;fontSize=12;fontColor=default;" parent="XLJOTzD1S34jmGUU4nhe-1" vertex="1">
          <mxGeometry x="1260" y="380" width="570" height="90" as="geometry" />
        </mxCell>
        <mxCell id="6KRJ287aKEshhGryGnyS-1" value="also, using the tags construction to link between projects database fields&lt;div&gt;and the tags on tethys, te, and MHKDR will be challenging.&lt;/div&gt;" style="text;html=1;align=center;verticalAlign=middle;resizable=0;points=[];autosize=1;strokeColor=none;fillColor=none;fontFamily=Helvetica;fontSize=12;fontColor=default;" parent="XLJOTzD1S34jmGUU4nhe-1" vertex="1">
          <mxGeometry x="1270" y="470" width="410" height="40" as="geometry" />
        </mxCell>
        <mxCell id="6KRJ287aKEshhGryGnyS-2" value="Might be best if I try to decompose the entities&amp;nbsp;&lt;div&gt;&quot;organizations&quot; &quot;projects,&quot; &quot;devices,&quot; &quot;test sites,&quot; based on&lt;/div&gt;&lt;div&gt;the fields that they contain rather than their semantics.&lt;/div&gt;&lt;div&gt;That would give me a huge amount of freedom in&lt;/div&gt;&lt;div&gt;how I represent them, possibly enabling a tabular&amp;nbsp;&lt;/div&gt;&lt;div&gt;connection among the KHs.&lt;/div&gt;" style="text;html=1;align=center;verticalAlign=middle;resizable=0;points=[];autosize=1;strokeColor=none;fillColor=none;fontFamily=Helvetica;fontSize=12;fontColor=default;" parent="XLJOTzD1S34jmGUU4nhe-1" vertex="1">
          <mxGeometry x="1270" y="540" width="330" height="100" as="geometry" />
        </mxCell>
        <mxCell id="6KRJ287aKEshhGryGnyS-3" value="to my extreme surprise, reducing the resolution of the &quot;authors&quot;&lt;div&gt;field actually works!&lt;/div&gt;" style="text;html=1;align=center;verticalAlign=middle;resizable=0;points=[];autosize=1;strokeColor=none;fillColor=none;" parent="XLJOTzD1S34jmGUU4nhe-1" vertex="1">
          <mxGeometry x="1280" y="670" width="360" height="40" as="geometry" />
        </mxCell>
        <mxCell id="6KRJ287aKEshhGryGnyS-4" value="https://mhkdr.openei.org/submissions/250&lt;div&gt;https://tethys-engineering.pnnl.gov/author/boerner-t&lt;br&gt;&lt;/div&gt;&lt;div&gt;https://tethys.pnnl.gov/author/boerner-t&lt;br&gt;&lt;/div&gt;" style="text;html=1;align=center;verticalAlign=middle;resizable=0;points=[];autosize=1;strokeColor=none;fillColor=none;" parent="XLJOTzD1S34jmGUU4nhe-1" vertex="1">
          <mxGeometry x="1280" y="710" width="300" height="60" as="geometry" />
        </mxCell>
        <mxCell id="vz4CJ1ccR9rXMkQp4_nw-3" value="signatureProject" style="ellipse;whiteSpace=wrap;html=1;align=center;strokeColor=#82b366;verticalAlign=middle;fontFamily=Helvetica;fontSize=12;fillColor=#d5e8d4;" parent="XLJOTzD1S34jmGUU4nhe-1" vertex="1">
          <mxGeometry x="540" y="70" width="60" height="30" as="geometry" />
        </mxCell>
        <mxCell id="vz4CJ1ccR9rXMkQp4_nw-5" value="URI" style="ellipse;whiteSpace=wrap;html=1;align=center;strokeColor=#82b366;verticalAlign=middle;fontFamily=Helvetica;fontSize=12;fillColor=#d5e8d4;" parent="XLJOTzD1S34jmGUU4nhe-1" vertex="1">
          <mxGeometry x="300" y="20" width="60" height="30" as="geometry" />
        </mxCell>
        <mxCell id="vz4CJ1ccR9rXMkQp4_nw-6" value="landingPage" style="ellipse;whiteSpace=wrap;html=1;align=center;strokeColor=#82b366;verticalAlign=middle;fontFamily=Helvetica;fontSize=12;fillColor=#d5e8d4;" parent="XLJOTzD1S34jmGUU4nhe-1" vertex="1">
          <mxGeometry x="380" y="20" width="60" height="30" as="geometry" />
        </mxCell>
        <mxCell id="vz4CJ1ccR9rXMkQp4_nw-7" value="sourceURL" style="ellipse;whiteSpace=wrap;html=1;align=center;strokeColor=#82b366;verticalAlign=middle;fontFamily=Helvetica;fontSize=12;fillColor=#d5e8d4;" parent="XLJOTzD1S34jmGUU4nhe-1" vertex="1">
          <mxGeometry x="460" y="20" width="60" height="30" as="geometry" />
        </mxCell>
        <mxCell id="vz4CJ1ccR9rXMkQp4_nw-8" value="title" style="ellipse;whiteSpace=wrap;html=1;align=center;strokeColor=#82b366;verticalAlign=middle;fontFamily=Helvetica;fontSize=12;fillColor=#d5e8d4;" parent="XLJOTzD1S34jmGUU4nhe-1" vertex="1">
          <mxGeometry x="540" y="20" width="60" height="30" as="geometry" />
        </mxCell>
        <mxCell id="vz4CJ1ccR9rXMkQp4_nw-9" value="description" style="ellipse;whiteSpace=wrap;html=1;align=center;strokeColor=#82b366;verticalAlign=middle;fontFamily=Helvetica;fontSize=12;fillColor=#d5e8d4;" parent="XLJOTzD1S34jmGUU4nhe-1" vertex="1">
          <mxGeometry x="125" y="230" width="60" height="30" as="geometry" />
        </mxCell>
        <mxCell id="vz4CJ1ccR9rXMkQp4_nw-10" value="name" style="ellipse;whiteSpace=wrap;html=1;align=center;strokeColor=#82b366;verticalAlign=middle;fontFamily=Helvetica;fontSize=12;fillColor=#d5e8d4;" parent="XLJOTzD1S34jmGUU4nhe-1" vertex="1">
          <mxGeometry x="55" y="230" width="60" height="30" as="geometry" />
        </mxCell>
        <mxCell id="vz4CJ1ccR9rXMkQp4_nw-11" value="difference of grain. MHKDR &quot;etry&quot; describes a colleciton of resources (attachments)&amp;nbsp;&lt;div&gt;vs tethys /tethys_e where each entry describes 1 resource (attachment)&amp;nbsp;&lt;/div&gt;&lt;div&gt;Actually this is not really true, many times tethys is used by this MHKDR definition.&lt;/div&gt;" style="text;html=1;align=center;verticalAlign=middle;resizable=0;points=[];autosize=1;strokeColor=none;fillColor=none;" parent="XLJOTzD1S34jmGUU4nhe-1" vertex="1">
          <mxGeometry x="880" y="60" width="470" height="60" as="geometry" />
        </mxCell>
        <mxCell id="vz4CJ1ccR9rXMkQp4_nw-12" value="link" style="ellipse;whiteSpace=wrap;html=1;align=center;strokeColor=#82b366;verticalAlign=middle;fontFamily=Helvetica;fontSize=12;fillColor=#d5e8d4;" parent="XLJOTzD1S34jmGUU4nhe-1" vertex="1">
          <mxGeometry x="90" y="270" width="60" height="30" as="geometry" />
        </mxCell>
        <mxCell id="vz4CJ1ccR9rXMkQp4_nw-13" value="auth_name" style="ellipse;whiteSpace=wrap;html=1;align=center;strokeColor=#82b366;verticalAlign=middle;fontFamily=Helvetica;fontSize=12;fillColor=#d5e8d4;" parent="XLJOTzD1S34jmGUU4nhe-1" vertex="1">
          <mxGeometry x="285" y="200" width="60" height="30" as="geometry" />
        </mxCell>
        <mxCell id="vz4CJ1ccR9rXMkQp4_nw-14" value="auth_id" style="ellipse;whiteSpace=wrap;html=1;align=center;strokeColor=#82b366;verticalAlign=middle;fontFamily=Helvetica;fontSize=12;fillColor=#d5e8d4;" parent="XLJOTzD1S34jmGUU4nhe-1" vertex="1">
          <mxGeometry x="215" y="200" width="60" height="30" as="geometry" />
        </mxCell>
        <mxCell id="vz4CJ1ccR9rXMkQp4_nw-15" value="tag" style="ellipse;whiteSpace=wrap;html=1;align=center;strokeColor=#82b366;verticalAlign=middle;fontFamily=Helvetica;fontSize=12;fillColor=#d5e8d4;" parent="XLJOTzD1S34jmGUU4nhe-1" vertex="1">
          <mxGeometry x="680" y="190" width="60" height="30" as="geometry" />
        </mxCell>
        <mxCell id="vz4CJ1ccR9rXMkQp4_nw-16" value="tag_id" style="ellipse;whiteSpace=wrap;html=1;align=center;strokeColor=#82b366;verticalAlign=middle;fontFamily=Helvetica;fontSize=12;fillColor=#d5e8d4;" parent="XLJOTzD1S34jmGUU4nhe-1" vertex="1">
          <mxGeometry x="610" y="190" width="60" height="30" as="geometry" />
        </mxCell>
        <mxCell id="vz4CJ1ccR9rXMkQp4_nw-18" value="lat" style="ellipse;whiteSpace=wrap;html=1;align=center;strokeColor=#82b366;verticalAlign=middle;fontFamily=Helvetica;fontSize=12;fillColor=#d5e8d4;" parent="XLJOTzD1S34jmGUU4nhe-1" vertex="1">
          <mxGeometry x="775" y="190" width="60" height="30" as="geometry" />
        </mxCell>
        <mxCell id="vz4CJ1ccR9rXMkQp4_nw-20" value="long" style="ellipse;whiteSpace=wrap;html=1;align=center;strokeColor=#82b366;verticalAlign=middle;fontFamily=Helvetica;fontSize=12;fillColor=#d5e8d4;" parent="XLJOTzD1S34jmGUU4nhe-1" vertex="1">
          <mxGeometry x="845" y="190" width="60" height="30" as="geometry" />
        </mxCell>
        <mxCell id="vz4CJ1ccR9rXMkQp4_nw-22" value="org_id" style="ellipse;whiteSpace=wrap;html=1;align=center;strokeColor=#82b366;verticalAlign=middle;fontFamily=Helvetica;fontSize=12;fillColor=#d5e8d4;" parent="XLJOTzD1S34jmGUU4nhe-1" vertex="1">
          <mxGeometry x="215" y="240" width="60" height="30" as="geometry" />
        </mxCell>
        <mxCell id="S-ruL9Phr0iPrtvN4g1f-0" value="loc_id" style="ellipse;whiteSpace=wrap;html=1;align=center;strokeColor=#82b366;verticalAlign=middle;fontFamily=Helvetica;fontSize=12;fillColor=#d5e8d4;" parent="XLJOTzD1S34jmGUU4nhe-1" vertex="1">
          <mxGeometry x="775" y="235" width="60" height="30" as="geometry" />
        </mxCell>
        <mxCell id="S-ruL9Phr0iPrtvN4g1f-1" value="resource_id" style="ellipse;whiteSpace=wrap;html=1;align=center;strokeColor=#82b366;verticalAlign=middle;fontFamily=Helvetica;fontSize=12;fillColor=#d5e8d4;" parent="XLJOTzD1S34jmGUU4nhe-1" vertex="1">
          <mxGeometry x="90" y="190" width="60" height="30" as="geometry" />
        </mxCell>
        <mxCell id="S-ruL9Phr0iPrtvN4g1f-2" value="Name" style="ellipse;whiteSpace=wrap;html=1;align=center;strokeColor=#82b366;verticalAlign=middle;fontFamily=Helvetica;fontSize=12;fillColor=#d5e8d4;" parent="XLJOTzD1S34jmGUU4nhe-1" vertex="1">
          <mxGeometry x="335" y="1100" width="60" height="30" as="geometry" />
        </mxCell>
        <mxCell id="S-ruL9Phr0iPrtvN4g1f-3" value="Device Website" style="ellipse;whiteSpace=wrap;html=1;align=center;strokeColor=#82b366;verticalAlign=middle;fontFamily=Helvetica;fontSize=12;fillColor=#d5e8d4;" parent="XLJOTzD1S34jmGUU4nhe-1" vertex="1">
          <mxGeometry x="405" y="1100" width="60" height="30" as="geometry" />
        </mxCell>
        <mxCell id="S-ruL9Phr0iPrtvN4g1f-4" value="Resource Type" style="ellipse;whiteSpace=wrap;html=1;align=center;strokeColor=#82b366;verticalAlign=middle;fontFamily=Helvetica;fontSize=12;fillColor=#d5e8d4;" parent="XLJOTzD1S34jmGUU4nhe-1" vertex="1">
          <mxGeometry x="335" y="1210" width="60" height="30" as="geometry" />
        </mxCell>
        <mxCell id="S-ruL9Phr0iPrtvN4g1f-5" value="Device Status" style="ellipse;whiteSpace=wrap;html=1;align=center;strokeColor=#82b366;verticalAlign=middle;fontFamily=Helvetica;fontSize=12;fillColor=#d5e8d4;" parent="XLJOTzD1S34jmGUU4nhe-1" vertex="1">
          <mxGeometry x="335" y="1145" width="60" height="30" as="geometry" />
        </mxCell>
        <mxCell id="S-ruL9Phr0iPrtvN4g1f-6" value="device_id" style="ellipse;whiteSpace=wrap;html=1;align=center;strokeColor=#82b366;verticalAlign=middle;fontFamily=Helvetica;fontSize=12;fillColor=#d5e8d4;" parent="XLJOTzD1S34jmGUU4nhe-1" vertex="1">
          <mxGeometry x="745" y="1320" width="60" height="30" as="geometry" />
        </mxCell>
        <mxCell id="S-ruL9Phr0iPrtvN4g1f-7" value="Resource Type" style="ellipse;whiteSpace=wrap;html=1;align=center;strokeColor=#82b366;verticalAlign=middle;fontFamily=Helvetica;fontSize=12;fillColor=#d5e8d4;" parent="XLJOTzD1S34jmGUU4nhe-1" vertex="1">
          <mxGeometry x="745" y="1395" width="60" height="30" as="geometry" />
        </mxCell>
        <mxCell id="S-ruL9Phr0iPrtvN4g1f-8" value="Power Take Off (PTO)" style="ellipse;whiteSpace=wrap;html=1;align=center;strokeColor=#82b366;verticalAlign=middle;fontFamily=Helvetica;fontSize=12;fillColor=#d5e8d4;" parent="XLJOTzD1S34jmGUU4nhe-1" vertex="1">
          <mxGeometry x="780" y="1358.75" width="60" height="30" as="geometry" />
        </mxCell>
        <mxCell id="S-ruL9Phr0iPrtvN4g1f-9" value="Technology Type" style="ellipse;whiteSpace=wrap;html=1;align=center;strokeColor=#82b366;verticalAlign=middle;fontFamily=Helvetica;fontSize=12;fillColor=#d5e8d4;" parent="XLJOTzD1S34jmGUU4nhe-1" vertex="1">
          <mxGeometry x="710" y="1358.75" width="60" height="30" as="geometry" />
        </mxCell>
        <mxCell id="S-ruL9Phr0iPrtvN4g1f-10" value="Device Description" style="ellipse;whiteSpace=wrap;html=1;align=center;strokeColor=#82b366;verticalAlign=middle;fontFamily=Helvetica;fontSize=12;fillColor=#d5e8d4;" parent="XLJOTzD1S34jmGUU4nhe-1" vertex="1">
          <mxGeometry x="475" y="1100" width="60" height="30" as="geometry" />
        </mxCell>
        <mxCell id="S-ruL9Phr0iPrtvN4g1f-11" value="Device Image URL" style="ellipse;whiteSpace=wrap;html=1;align=center;strokeColor=#82b366;verticalAlign=middle;fontFamily=Helvetica;fontSize=12;fillColor=#d5e8d4;" parent="XLJOTzD1S34jmGUU4nhe-1" vertex="1">
          <mxGeometry x="545" y="1100" width="60" height="30" as="geometry" />
        </mxCell>
        <mxCell id="S-ruL9Phr0iPrtvN4g1f-12" value="Water Column Position" style="ellipse;whiteSpace=wrap;html=1;align=center;strokeColor=#82b366;verticalAlign=middle;fontFamily=Helvetica;fontSize=12;fillColor=#d5e8d4;" parent="XLJOTzD1S34jmGUU4nhe-1" vertex="1">
          <mxGeometry x="475" y="1210" width="60" height="30" as="geometry" />
        </mxCell>
        <mxCell id="S-ruL9Phr0iPrtvN4g1f-13" value="Technology Type" style="ellipse;whiteSpace=wrap;html=1;align=center;strokeColor=#82b366;verticalAlign=middle;fontFamily=Helvetica;fontSize=12;fillColor=#d5e8d4;" parent="XLJOTzD1S34jmGUU4nhe-1" vertex="1">
          <mxGeometry x="405" y="1210" width="60" height="30" as="geometry" />
        </mxCell>
        <mxCell id="S-ruL9Phr0iPrtvN4g1f-14" value="device_id" style="ellipse;whiteSpace=wrap;html=1;align=center;strokeColor=#82b366;verticalAlign=middle;fontFamily=Helvetica;fontSize=12;fillColor=#d5e8d4;" parent="XLJOTzD1S34jmGUU4nhe-1" vertex="1">
          <mxGeometry x="440" y="1050" width="60" height="30" as="geometry" />
        </mxCell>
        <mxCell id="S-ruL9Phr0iPrtvN4g1f-15" value="Organization" style="text;html=1;align=center;verticalAlign=middle;resizable=0;points=[];autosize=1;strokeColor=none;fillColor=none;" parent="XLJOTzD1S34jmGUU4nhe-1" vertex="1">
          <mxGeometry x="375" y="1330" width="90" height="30" as="geometry" />
        </mxCell>
        <mxCell id="S-ruL9Phr0iPrtvN4g1f-16" value="Surface Expression" style="ellipse;whiteSpace=wrap;html=1;align=center;strokeColor=#82b366;verticalAlign=middle;fontFamily=Helvetica;fontSize=12;fillColor=#d5e8d4;" parent="XLJOTzD1S34jmGUU4nhe-1" vertex="1">
          <mxGeometry x="545" y="1210" width="60" height="30" as="geometry" />
        </mxCell>
        <mxCell id="S-ruL9Phr0iPrtvN4g1f-17" value="Max Rated Power Capacity (KW)" style="ellipse;whiteSpace=wrap;html=1;align=center;strokeColor=#82b366;verticalAlign=middle;fontFamily=Helvetica;fontSize=12;fillColor=#d5e8d4;" parent="XLJOTzD1S34jmGUU4nhe-1" vertex="1">
          <mxGeometry x="405" y="1270" width="60" height="30" as="geometry" />
        </mxCell>
        <mxCell id="S-ruL9Phr0iPrtvN4g1f-18" value="Power Take Off (PTO)" style="ellipse;whiteSpace=wrap;html=1;align=center;strokeColor=#82b366;verticalAlign=middle;fontFamily=Helvetica;fontSize=12;fillColor=#d5e8d4;" parent="XLJOTzD1S34jmGUU4nhe-1" vertex="1">
          <mxGeometry x="335" y="1270" width="60" height="30" as="geometry" />
        </mxCell>
        <mxCell id="S-ruL9Phr0iPrtvN4g1f-19" value="Est TRL" style="ellipse;whiteSpace=wrap;html=1;align=center;strokeColor=#82b366;verticalAlign=middle;fontFamily=Helvetica;fontSize=12;fillColor=#d5e8d4;" parent="XLJOTzD1S34jmGUU4nhe-1" vertex="1">
          <mxGeometry x="475" y="1270" width="60" height="30" as="geometry" />
        </mxCell>
        <mxCell id="S-ruL9Phr0iPrtvN4g1f-20" value="Est TRL date" style="ellipse;whiteSpace=wrap;html=1;align=center;strokeColor=#82b366;verticalAlign=middle;fontFamily=Helvetica;fontSize=12;fillColor=#d5e8d4;" parent="XLJOTzD1S34jmGUU4nhe-1" vertex="1">
          <mxGeometry x="545" y="1270" width="60" height="30" as="geometry" />
        </mxCell>
        <mxCell id="S-ruL9Phr0iPrtvN4g1f-21" value="Name" style="ellipse;whiteSpace=wrap;html=1;align=center;strokeColor=#82b366;verticalAlign=middle;fontFamily=Helvetica;fontSize=12;fillColor=#d5e8d4;" parent="XLJOTzD1S34jmGUU4nhe-1" vertex="1">
          <mxGeometry x="720" y="825" width="60" height="30" as="geometry" />
        </mxCell>
        <mxCell id="S-ruL9Phr0iPrtvN4g1f-22" value="test site Website" style="ellipse;whiteSpace=wrap;html=1;align=center;strokeColor=#82b366;verticalAlign=middle;fontFamily=Helvetica;fontSize=12;fillColor=#d5e8d4;" parent="XLJOTzD1S34jmGUU4nhe-1" vertex="1">
          <mxGeometry x="790" y="825" width="60" height="30" as="geometry" />
        </mxCell>
        <mxCell id="S-ruL9Phr0iPrtvN4g1f-23" value="Waterbody name" style="ellipse;whiteSpace=wrap;html=1;align=center;strokeColor=#82b366;verticalAlign=middle;fontFamily=Helvetica;fontSize=12;fillColor=#d5e8d4;" parent="XLJOTzD1S34jmGUU4nhe-1" vertex="1">
          <mxGeometry x="720" y="860" width="60" height="30" as="geometry" />
        </mxCell>
        <mxCell id="S-ruL9Phr0iPrtvN4g1f-24" value="test site Status" style="ellipse;whiteSpace=wrap;html=1;align=center;strokeColor=#82b366;verticalAlign=middle;fontFamily=Helvetica;fontSize=12;fillColor=#d5e8d4;" parent="XLJOTzD1S34jmGUU4nhe-1" vertex="1">
          <mxGeometry x="1000" y="825" width="60" height="30" as="geometry" />
        </mxCell>
        <mxCell id="S-ruL9Phr0iPrtvN4g1f-25" value="test site Description" style="ellipse;whiteSpace=wrap;html=1;align=center;strokeColor=#82b366;verticalAlign=middle;fontFamily=Helvetica;fontSize=12;fillColor=#d5e8d4;" parent="XLJOTzD1S34jmGUU4nhe-1" vertex="1">
          <mxGeometry x="860" y="825" width="60" height="30" as="geometry" />
        </mxCell>
        <mxCell id="S-ruL9Phr0iPrtvN4g1f-26" value="test site image URL" style="ellipse;whiteSpace=wrap;html=1;align=center;strokeColor=#82b366;verticalAlign=middle;fontFamily=Helvetica;fontSize=12;fillColor=#d5e8d4;" parent="XLJOTzD1S34jmGUU4nhe-1" vertex="1">
          <mxGeometry x="930" y="825" width="60" height="30" as="geometry" />
        </mxCell>
        <mxCell id="S-ruL9Phr0iPrtvN4g1f-27" value="country" style="ellipse;whiteSpace=wrap;html=1;align=center;strokeColor=#82b366;verticalAlign=middle;fontFamily=Helvetica;fontSize=12;fillColor=#d5e8d4;" parent="XLJOTzD1S34jmGUU4nhe-1" vertex="1">
          <mxGeometry x="860" y="860" width="60" height="30" as="geometry" />
        </mxCell>
        <mxCell id="S-ruL9Phr0iPrtvN4g1f-28" value="site characteristics" style="ellipse;whiteSpace=wrap;html=1;align=center;strokeColor=#82b366;verticalAlign=middle;fontFamily=Helvetica;fontSize=12;fillColor=#d5e8d4;" parent="XLJOTzD1S34jmGUU4nhe-1" vertex="1">
          <mxGeometry x="790" y="860" width="60" height="30" as="geometry" />
        </mxCell>
        <mxCell id="S-ruL9Phr0iPrtvN4g1f-29" value="test_site_id" style="ellipse;whiteSpace=wrap;html=1;align=center;strokeColor=#82b366;verticalAlign=middle;fontFamily=Helvetica;fontSize=12;fillColor=#d5e8d4;" parent="XLJOTzD1S34jmGUU4nhe-1" vertex="1">
          <mxGeometry x="825" y="775" width="60" height="30" as="geometry" />
        </mxCell>
        <mxCell id="S-ruL9Phr0iPrtvN4g1f-31" value="Start Month and Year" style="ellipse;whiteSpace=wrap;html=1;align=center;strokeColor=#82b366;verticalAlign=middle;fontFamily=Helvetica;fontSize=12;fillColor=#d5e8d4;" parent="XLJOTzD1S34jmGUU4nhe-1" vertex="1">
          <mxGeometry x="790" y="902" width="60" height="30" as="geometry" />
        </mxCell>
        <mxCell id="S-ruL9Phr0iPrtvN4g1f-32" value="Resource Type" style="ellipse;whiteSpace=wrap;html=1;align=center;strokeColor=#82b366;verticalAlign=middle;fontFamily=Helvetica;fontSize=12;fillColor=#d5e8d4;" parent="XLJOTzD1S34jmGUU4nhe-1" vertex="1">
          <mxGeometry x="720" y="902" width="60" height="30" as="geometry" />
        </mxCell>
        <mxCell id="S-ruL9Phr0iPrtvN4g1f-33" value="End Month and Year" style="ellipse;whiteSpace=wrap;html=1;align=center;strokeColor=#82b366;verticalAlign=middle;fontFamily=Helvetica;fontSize=12;fillColor=#d5e8d4;" parent="XLJOTzD1S34jmGUU4nhe-1" vertex="1">
          <mxGeometry x="860" y="902" width="60" height="30" as="geometry" />
        </mxCell>
        <mxCell id="S-ruL9Phr0iPrtvN4g1f-34" value="Connectivity" style="ellipse;whiteSpace=wrap;html=1;align=center;strokeColor=#82b366;verticalAlign=middle;fontFamily=Helvetica;fontSize=12;fillColor=#d5e8d4;" parent="XLJOTzD1S34jmGUU4nhe-1" vertex="1">
          <mxGeometry x="930" y="902" width="60" height="30" as="geometry" />
        </mxCell>
        <mxCell id="S-ruL9Phr0iPrtvN4g1f-35" value="Organization" style="text;html=1;align=center;verticalAlign=middle;resizable=0;points=[];autosize=1;strokeColor=none;fillColor=none;" parent="XLJOTzD1S34jmGUU4nhe-1" vertex="1">
          <mxGeometry x="950" y="770" width="90" height="30" as="geometry" />
        </mxCell>
        <mxCell id="S-ruL9Phr0iPrtvN4g1f-36" value="test site capacity" style="ellipse;whiteSpace=wrap;html=1;align=center;strokeColor=#82b366;verticalAlign=middle;fontFamily=Helvetica;fontSize=12;fillColor=#d5e8d4;" parent="XLJOTzD1S34jmGUU4nhe-1" vertex="1">
          <mxGeometry x="1000" y="900" width="60" height="30" as="geometry" />
        </mxCell>
        <mxCell id="S-ruL9Phr0iPrtvN4g1f-37" value="Number of Berths" style="ellipse;whiteSpace=wrap;html=1;align=center;strokeColor=#82b366;verticalAlign=middle;fontFamily=Helvetica;fontSize=12;fillColor=#d5e8d4;" parent="XLJOTzD1S34jmGUU4nhe-1" vertex="1">
          <mxGeometry x="1070" y="900" width="60" height="30" as="geometry" />
        </mxCell>
        <mxCell id="S-ruL9Phr0iPrtvN4g1f-38" value="Device (name)" style="ellipse;whiteSpace=wrap;html=1;align=center;strokeColor=#82b366;verticalAlign=middle;fontFamily=Helvetica;fontSize=12;fillColor=#d5e8d4;" parent="XLJOTzD1S34jmGUU4nhe-1" vertex="1">
          <mxGeometry x="720" y="1010" width="60" height="30" as="geometry" />
        </mxCell>
        <mxCell id="S-ruL9Phr0iPrtvN4g1f-39" value="Berth" style="ellipse;whiteSpace=wrap;html=1;align=center;strokeColor=#82b366;verticalAlign=middle;fontFamily=Helvetica;fontSize=12;fillColor=#d5e8d4;" parent="XLJOTzD1S34jmGUU4nhe-1" vertex="1">
          <mxGeometry x="790" y="1010" width="60" height="30" as="geometry" />
        </mxCell>
        <mxCell id="S-ruL9Phr0iPrtvN4g1f-40" value="StartDate" style="ellipse;whiteSpace=wrap;html=1;align=center;strokeColor=#82b366;verticalAlign=middle;fontFamily=Helvetica;fontSize=12;fillColor=#d5e8d4;" parent="XLJOTzD1S34jmGUU4nhe-1" vertex="1">
          <mxGeometry x="860" y="1008" width="60" height="30" as="geometry" />
        </mxCell>
        <mxCell id="S-ruL9Phr0iPrtvN4g1f-41" value="EndDate" style="ellipse;whiteSpace=wrap;html=1;align=center;strokeColor=#82b366;verticalAlign=middle;fontFamily=Helvetica;fontSize=12;fillColor=#d5e8d4;" parent="XLJOTzD1S34jmGUU4nhe-1" vertex="1">
          <mxGeometry x="930" y="1008" width="60" height="30" as="geometry" />
        </mxCell>
        <mxCell id="S-ruL9Phr0iPrtvN4g1f-42" value="Deployments" style="whiteSpace=wrap;html=1;align=center;fillColor=#dae8fc;strokeColor=#6c8ebf;" parent="XLJOTzD1S34jmGUU4nhe-1" vertex="1">
          <mxGeometry x="805" y="958" width="100" height="40" as="geometry" />
        </mxCell>
        <mxCell id="S-ruL9Phr0iPrtvN4g1f-65" value="Name" style="ellipse;whiteSpace=wrap;html=1;align=center;strokeColor=#82b366;verticalAlign=middle;fontFamily=Helvetica;fontSize=12;fillColor=#d5e8d4;" parent="XLJOTzD1S34jmGUU4nhe-1" vertex="1">
          <mxGeometry x="-270" y="830" width="60" height="30" as="geometry" />
        </mxCell>
        <mxCell id="S-ruL9Phr0iPrtvN4g1f-66" value="project Website" style="ellipse;whiteSpace=wrap;html=1;align=center;strokeColor=#82b366;verticalAlign=middle;fontFamily=Helvetica;fontSize=12;fillColor=#d5e8d4;" parent="XLJOTzD1S34jmGUU4nhe-1" vertex="1">
          <mxGeometry x="-200" y="830" width="60" height="30" as="geometry" />
        </mxCell>
        <mxCell id="S-ruL9Phr0iPrtvN4g1f-67" value="resource type" style="ellipse;whiteSpace=wrap;html=1;align=center;strokeColor=#82b366;verticalAlign=middle;fontFamily=Helvetica;fontSize=12;fillColor=#d5e8d4;" parent="XLJOTzD1S34jmGUU4nhe-1" vertex="1">
          <mxGeometry x="-270" y="888" width="60" height="30" as="geometry" />
        </mxCell>
        <mxCell id="S-ruL9Phr0iPrtvN4g1f-68" value="project Status" style="ellipse;whiteSpace=wrap;html=1;align=center;strokeColor=#82b366;verticalAlign=middle;fontFamily=Helvetica;fontSize=12;fillColor=#d5e8d4;" parent="XLJOTzD1S34jmGUU4nhe-1" vertex="1">
          <mxGeometry x="10" y="830" width="60" height="30" as="geometry" />
        </mxCell>
        <mxCell id="S-ruL9Phr0iPrtvN4g1f-69" value="project Description" style="ellipse;whiteSpace=wrap;html=1;align=center;strokeColor=#82b366;verticalAlign=middle;fontFamily=Helvetica;fontSize=12;fillColor=#d5e8d4;" parent="XLJOTzD1S34jmGUU4nhe-1" vertex="1">
          <mxGeometry x="-130" y="830" width="60" height="30" as="geometry" />
        </mxCell>
        <mxCell id="S-ruL9Phr0iPrtvN4g1f-70" value="project image URL" style="ellipse;whiteSpace=wrap;html=1;align=center;strokeColor=#82b366;verticalAlign=middle;fontFamily=Helvetica;fontSize=12;fillColor=#d5e8d4;" parent="XLJOTzD1S34jmGUU4nhe-1" vertex="1">
          <mxGeometry x="-60" y="830" width="60" height="30" as="geometry" />
        </mxCell>
        <mxCell id="S-ruL9Phr0iPrtvN4g1f-71" value="project start year" style="ellipse;whiteSpace=wrap;html=1;align=center;strokeColor=#82b366;verticalAlign=middle;fontFamily=Helvetica;fontSize=12;fillColor=#d5e8d4;" parent="XLJOTzD1S34jmGUU4nhe-1" vertex="1">
          <mxGeometry x="-130" y="888" width="60" height="30" as="geometry" />
        </mxCell>
        <mxCell id="S-ruL9Phr0iPrtvN4g1f-72" value="project life cycle" style="ellipse;whiteSpace=wrap;html=1;align=center;strokeColor=#82b366;verticalAlign=middle;fontFamily=Helvetica;fontSize=12;fillColor=#d5e8d4;" parent="XLJOTzD1S34jmGUU4nhe-1" vertex="1">
          <mxGeometry x="-200" y="888" width="60" height="30" as="geometry" />
        </mxCell>
        <mxCell id="S-ruL9Phr0iPrtvN4g1f-73" value="project_id" style="ellipse;whiteSpace=wrap;html=1;align=center;strokeColor=#82b366;verticalAlign=middle;fontFamily=Helvetica;fontSize=12;fillColor=#d5e8d4;" parent="XLJOTzD1S34jmGUU4nhe-1" vertex="1">
          <mxGeometry x="-165" y="780" width="60" height="30" as="geometry" />
        </mxCell>
        <mxCell id="S-ruL9Phr0iPrtvN4g1f-74" value="Project scale" style="ellipse;whiteSpace=wrap;html=1;align=center;strokeColor=#82b366;verticalAlign=middle;fontFamily=Helvetica;fontSize=12;fillColor=#d5e8d4;" parent="XLJOTzD1S34jmGUU4nhe-1" vertex="1">
          <mxGeometry x="-200" y="930" width="60" height="30" as="geometry" />
        </mxCell>
        <mxCell id="S-ruL9Phr0iPrtvN4g1f-75" value="project capacity" style="ellipse;whiteSpace=wrap;html=1;align=center;strokeColor=#82b366;verticalAlign=middle;fontFamily=Helvetica;fontSize=12;fillColor=#d5e8d4;" parent="XLJOTzD1S34jmGUU4nhe-1" vertex="1">
          <mxGeometry x="-270" y="930" width="60" height="30" as="geometry" />
        </mxCell>
        <mxCell id="S-ruL9Phr0iPrtvN4g1f-76" value="number of devices" style="ellipse;whiteSpace=wrap;html=1;align=center;strokeColor=#82b366;verticalAlign=middle;fontFamily=Helvetica;fontSize=12;fillColor=#d5e8d4;" parent="XLJOTzD1S34jmGUU4nhe-1" vertex="1">
          <mxGeometry x="-130" y="930" width="60" height="30" as="geometry" />
        </mxCell>
        <mxCell id="S-ruL9Phr0iPrtvN4g1f-77" value="waterbody name" style="ellipse;whiteSpace=wrap;html=1;align=center;strokeColor=#82b366;verticalAlign=middle;fontFamily=Helvetica;fontSize=12;fillColor=#d5e8d4;" parent="XLJOTzD1S34jmGUU4nhe-1" vertex="1">
          <mxGeometry x="-270" y="992" width="60" height="30" as="geometry" />
        </mxCell>
        <mxCell id="S-ruL9Phr0iPrtvN4g1f-78" value="Organization" style="text;html=1;align=center;verticalAlign=middle;resizable=0;points=[];autosize=1;strokeColor=none;fillColor=none;" parent="XLJOTzD1S34jmGUU4nhe-1" vertex="1">
          <mxGeometry x="-40" y="775" width="90" height="30" as="geometry" />
        </mxCell>
        <mxCell id="S-ruL9Phr0iPrtvN4g1f-79" value="site characteristics" style="ellipse;whiteSpace=wrap;html=1;align=center;strokeColor=#82b366;verticalAlign=middle;fontFamily=Helvetica;fontSize=12;fillColor=#d5e8d4;" parent="XLJOTzD1S34jmGUU4nhe-1" vertex="1">
          <mxGeometry x="-200" y="990" width="60" height="30" as="geometry" />
        </mxCell>
        <mxCell id="S-ruL9Phr0iPrtvN4g1f-80" value="Connectivity" style="ellipse;whiteSpace=wrap;html=1;align=center;strokeColor=#82b366;verticalAlign=middle;fontFamily=Helvetica;fontSize=12;fillColor=#d5e8d4;" parent="XLJOTzD1S34jmGUU4nhe-1" vertex="1">
          <mxGeometry x="150" y="888" width="60" height="30" as="geometry" />
        </mxCell>
        <mxCell id="S-ruL9Phr0iPrtvN4g1f-86" value="project end year" style="ellipse;whiteSpace=wrap;html=1;align=center;strokeColor=#82b366;verticalAlign=middle;fontFamily=Helvetica;fontSize=12;fillColor=#d5e8d4;" parent="XLJOTzD1S34jmGUU4nhe-1" vertex="1">
          <mxGeometry x="-60" y="888" width="60" height="30" as="geometry" />
        </mxCell>
        <mxCell id="S-ruL9Phr0iPrtvN4g1f-87" value="operational start m/yr" style="ellipse;whiteSpace=wrap;html=1;align=center;strokeColor=#82b366;verticalAlign=middle;fontFamily=Helvetica;fontSize=12;fillColor=#d5e8d4;" parent="XLJOTzD1S34jmGUU4nhe-1" vertex="1">
          <mxGeometry x="10" y="888" width="60" height="30" as="geometry" />
        </mxCell>
        <mxCell id="S-ruL9Phr0iPrtvN4g1f-88" value="operational end m/yr" style="ellipse;whiteSpace=wrap;html=1;align=center;strokeColor=#82b366;verticalAlign=middle;fontFamily=Helvetica;fontSize=12;fillColor=#d5e8d4;" parent="XLJOTzD1S34jmGUU4nhe-1" vertex="1">
          <mxGeometry x="80" y="888" width="60" height="30" as="geometry" />
        </mxCell>
        <mxCell id="S-ruL9Phr0iPrtvN4g1f-89" value="country" style="ellipse;whiteSpace=wrap;html=1;align=center;strokeColor=#82b366;verticalAlign=middle;fontFamily=Helvetica;fontSize=12;fillColor=#d5e8d4;" parent="XLJOTzD1S34jmGUU4nhe-1" vertex="1">
          <mxGeometry x="-130" y="992" width="60" height="30" as="geometry" />
        </mxCell>
        <mxCell id="S-ruL9Phr0iPrtvN4g1f-90" value="device" style="text;html=1;align=center;verticalAlign=middle;resizable=0;points=[];autosize=1;strokeColor=none;fillColor=none;" parent="XLJOTzD1S34jmGUU4nhe-1" vertex="1">
          <mxGeometry x="-25" y="932" width="60" height="30" as="geometry" />
        </mxCell>
        <mxCell id="S-ruL9Phr0iPrtvN4g1f-92" value="coordinates" style="ellipse;whiteSpace=wrap;html=1;align=center;strokeColor=#82b366;verticalAlign=middle;fontFamily=Helvetica;fontSize=12;fillColor=#d5e8d4;" parent="XLJOTzD1S34jmGUU4nhe-1" vertex="1">
          <mxGeometry x="-60" y="992" width="60" height="30" as="geometry" />
        </mxCell>
      </root>
    </mxGraphModel>
  </diagram>
  <diagram id="jAd9IBizqBWhgMRPppP2" name="PRIMRE Combined">
    <mxGraphModel dx="4026" dy="3360" grid="1" gridSize="10" guides="1" tooltips="1" connect="1" arrows="1" fold="1" page="1" pageScale="1" pageWidth="850" pageHeight="1100" math="0" shadow="0">
      <root>
        <mxCell id="0" />
        <mxCell id="1" parent="0" />
        <mxCell id="4Stbj8CexuUzK5XM73EX-1" value="Tethyss" style="whiteSpace=wrap;html=1;align=center;fillColor=#dae8fc;strokeColor=#6c8ebf;" vertex="1" parent="1">
          <mxGeometry x="100" y="240" width="100" height="40" as="geometry" />
        </mxCell>
        <mxCell id="4Stbj8CexuUzK5XM73EX-2" value="description" style="ellipse;whiteSpace=wrap;html=1;align=center;strokeColor=#82b366;verticalAlign=middle;fontFamily=Helvetica;fontSize=12;fillColor=#d5e8d4;" vertex="1" parent="1">
          <mxGeometry x="470" y="20" width="60" height="30" as="geometry" />
        </mxCell>
        <mxCell id="4Stbj8CexuUzK5XM73EX-3" value="originationDate" style="ellipse;whiteSpace=wrap;html=1;align=center;strokeColor=#82b366;verticalAlign=middle;fontFamily=Helvetica;fontSize=12;fillColor=#d5e8d4;" vertex="1" parent="1">
          <mxGeometry x="550" y="20" width="60" height="30" as="geometry" />
        </mxCell>
        <mxCell id="4Stbj8CexuUzK5XM73EX-4" value="modifiedDate" style="ellipse;whiteSpace=wrap;html=1;align=center;strokeColor=#82b366;verticalAlign=middle;fontFamily=Helvetica;fontSize=12;fillColor=#d5e8d4;" vertex="1" parent="1">
          <mxGeometry x="630" y="20" width="60" height="30" as="geometry" />
        </mxCell>
        <mxCell id="4Stbj8CexuUzK5XM73EX-5" value="URI" style="ellipse;whiteSpace=wrap;html=1;align=center;strokeColor=#82b366;verticalAlign=middle;fontFamily=Helvetica;fontSize=12;fillColor=#d5e8d4;" vertex="1" parent="1">
          <mxGeometry x="470" y="-30" width="60" height="30" as="geometry" />
        </mxCell>
        <mxCell id="4Stbj8CexuUzK5XM73EX-6" value="landingPage" style="ellipse;whiteSpace=wrap;html=1;align=center;strokeColor=#82b366;verticalAlign=middle;fontFamily=Helvetica;fontSize=12;fillColor=#d5e8d4;" vertex="1" parent="1">
          <mxGeometry x="550" y="-30" width="60" height="30" as="geometry" />
        </mxCell>
        <mxCell id="4Stbj8CexuUzK5XM73EX-7" value="sourceURL" style="ellipse;whiteSpace=wrap;html=1;align=center;strokeColor=#82b366;verticalAlign=middle;fontFamily=Helvetica;fontSize=12;fillColor=#d5e8d4;" vertex="1" parent="1">
          <mxGeometry x="630" y="-30" width="60" height="30" as="geometry" />
        </mxCell>
        <mxCell id="4Stbj8CexuUzK5XM73EX-8" value="title" style="ellipse;whiteSpace=wrap;html=1;align=center;strokeColor=#82b366;verticalAlign=middle;fontFamily=Helvetica;fontSize=12;fillColor=#d5e8d4;" vertex="1" parent="1">
          <mxGeometry x="710" y="-30" width="60" height="30" as="geometry" />
        </mxCell>
        <mxCell id="4Stbj8CexuUzK5XM73EX-9" value="projectTitle" style="ellipse;whiteSpace=wrap;html=1;align=center;strokeColor=#82b366;verticalAlign=middle;fontFamily=Helvetica;fontSize=12;fillColor=#d5e8d4;" vertex="1" parent="1">
          <mxGeometry x="895" y="125" width="60" height="30" as="geometry" />
        </mxCell>
        <mxCell id="4Stbj8CexuUzK5XM73EX-10" value="projectNumber" style="ellipse;whiteSpace=wrap;html=1;align=center;strokeColor=#82b366;verticalAlign=middle;fontFamily=Helvetica;fontSize=12;fillColor=#d5e8d4;" vertex="1" parent="1">
          <mxGeometry x="730" y="175" width="60" height="30" as="geometry" />
        </mxCell>
        <mxCell id="4Stbj8CexuUzK5XM73EX-11" value="license" style="ellipse;whiteSpace=wrap;html=1;align=center;strokeColor=#82b366;verticalAlign=middle;fontFamily=Helvetica;fontSize=12;fillColor=#d5e8d4;" vertex="1" parent="1">
          <mxGeometry x="730" y="125" width="60" height="30" as="geometry" />
        </mxCell>
        <mxCell id="4Stbj8CexuUzK5XM73EX-12" value="issued" style="ellipse;whiteSpace=wrap;html=1;align=center;strokeColor=#82b366;verticalAlign=middle;fontFamily=Helvetica;fontSize=12;fillColor=#d5e8d4;" vertex="1" parent="1">
          <mxGeometry x="810" y="125" width="60" height="30" as="geometry" />
        </mxCell>
        <mxCell id="4Stbj8CexuUzK5XM73EX-13" value="publisher" style="ellipse;whiteSpace=wrap;html=1;align=center;strokeColor=#82b366;verticalAlign=middle;fontFamily=Helvetica;fontSize=12;fillColor=#d5e8d4;" vertex="1" parent="1">
          <mxGeometry x="810" y="175" width="60" height="30" as="geometry" />
        </mxCell>
        <mxCell id="4Stbj8CexuUzK5XM73EX-14" value="contactPoint" style="ellipse;whiteSpace=wrap;html=1;align=center;strokeColor=#82b366;verticalAlign=middle;fontFamily=Helvetica;fontSize=12;fillColor=#d5e8d4;" vertex="1" parent="1">
          <mxGeometry x="895" y="175" width="60" height="30" as="geometry" />
        </mxCell>
        <mxCell id="4Stbj8CexuUzK5XM73EX-15" value="&lt;u&gt;entry_id&lt;/u&gt;" style="ellipse;whiteSpace=wrap;html=1;align=center;strokeColor=#82b366;verticalAlign=middle;fontFamily=Helvetica;fontSize=12;fillColor=#d5e8d4;" vertex="1" parent="1">
          <mxGeometry x="470" y="-80" width="60" height="30" as="geometry" />
        </mxCell>
        <mxCell id="4Stbj8CexuUzK5XM73EX-16" value="&lt;u&gt;kh_id&lt;/u&gt;" style="ellipse;whiteSpace=wrap;html=1;align=center;strokeColor=#82b366;verticalAlign=middle;fontFamily=Helvetica;fontSize=12;fillColor=#d5e8d4;" vertex="1" parent="1">
          <mxGeometry x="550" y="-80" width="60" height="30" as="geometry" />
        </mxCell>
        <mxCell id="4Stbj8CexuUzK5XM73EX-17" style="edgeStyle=orthogonalEdgeStyle;rounded=0;orthogonalLoop=1;jettySize=auto;html=1;exitX=0.5;exitY=1;exitDx=0;exitDy=0;entryX=0;entryY=0.5;entryDx=0;entryDy=0;endArrow=none;endFill=0;" edge="1" parent="1" source="4Stbj8CexuUzK5XM73EX-19" target="4Stbj8CexuUzK5XM73EX-21">
          <mxGeometry relative="1" as="geometry" />
        </mxCell>
        <mxCell id="4Stbj8CexuUzK5XM73EX-18" style="edgeStyle=orthogonalEdgeStyle;rounded=0;orthogonalLoop=1;jettySize=auto;html=1;exitX=0.5;exitY=1;exitDx=0;exitDy=0;entryX=0;entryY=0.5;entryDx=0;entryDy=0;endArrow=none;endFill=0;" edge="1" parent="1" source="4Stbj8CexuUzK5XM73EX-19" target="4Stbj8CexuUzK5XM73EX-24">
          <mxGeometry relative="1" as="geometry" />
        </mxCell>
        <mxCell id="4Stbj8CexuUzK5XM73EX-19" value="Entries" style="whiteSpace=wrap;html=1;align=center;fillColor=#dae8fc;strokeColor=#6c8ebf;" vertex="1" parent="1">
          <mxGeometry x="350" y="60" width="100" height="40" as="geometry" />
        </mxCell>
        <mxCell id="4Stbj8CexuUzK5XM73EX-20" style="edgeStyle=orthogonalEdgeStyle;rounded=0;orthogonalLoop=1;jettySize=auto;html=1;exitX=1;exitY=0.5;exitDx=0;exitDy=0;entryX=0.5;entryY=0;entryDx=0;entryDy=0;endArrow=none;endFill=0;" edge="1" parent="1" source="4Stbj8CexuUzK5XM73EX-21" target="4Stbj8CexuUzK5XM73EX-33">
          <mxGeometry relative="1" as="geometry" />
        </mxCell>
        <mxCell id="4Stbj8CexuUzK5XM73EX-21" value="" style="triangle;whiteSpace=wrap;html=1;rotation=90;fillColor=#ffe6cc;strokeColor=#d79b00;" vertex="1" parent="1">
          <mxGeometry x="620" y="130" width="60" height="80" as="geometry" />
        </mxCell>
        <mxCell id="4Stbj8CexuUzK5XM73EX-22" value="is a" style="text;html=1;align=center;verticalAlign=middle;whiteSpace=wrap;rounded=0;" vertex="1" parent="1">
          <mxGeometry x="620" y="150" width="60" height="30" as="geometry" />
        </mxCell>
        <mxCell id="4Stbj8CexuUzK5XM73EX-23" style="edgeStyle=orthogonalEdgeStyle;rounded=0;orthogonalLoop=1;jettySize=auto;html=1;exitX=1;exitY=0.5;exitDx=0;exitDy=0;entryX=0.5;entryY=0;entryDx=0;entryDy=0;endArrow=none;endFill=0;" edge="1" parent="1" source="4Stbj8CexuUzK5XM73EX-24" target="4Stbj8CexuUzK5XM73EX-1">
          <mxGeometry relative="1" as="geometry" />
        </mxCell>
        <mxCell id="4Stbj8CexuUzK5XM73EX-24" value="" style="triangle;whiteSpace=wrap;html=1;rotation=90;fillColor=#ffe6cc;strokeColor=#d79b00;" vertex="1" parent="1">
          <mxGeometry x="120" y="130" width="60" height="80" as="geometry" />
        </mxCell>
        <mxCell id="4Stbj8CexuUzK5XM73EX-25" value="is a" style="text;html=1;align=center;verticalAlign=middle;whiteSpace=wrap;rounded=0;" vertex="1" parent="1">
          <mxGeometry x="120" y="150" width="60" height="30" as="geometry" />
        </mxCell>
        <mxCell id="4Stbj8CexuUzK5XM73EX-26" value="Attachment" style="whiteSpace=wrap;html=1;align=center;fillColor=#dae8fc;strokeColor=#6c8ebf;" vertex="1" parent="1">
          <mxGeometry x="-195" y="460" width="100" height="40" as="geometry" />
        </mxCell>
        <mxCell id="4Stbj8CexuUzK5XM73EX-27" style="edgeStyle=orthogonalEdgeStyle;rounded=0;orthogonalLoop=1;jettySize=auto;html=1;exitX=0.5;exitY=1;exitDx=0;exitDy=0;entryX=0.5;entryY=0;entryDx=0;entryDy=0;fontFamily=Helvetica;fontSize=12;fontColor=default;" edge="1" parent="1" source="4Stbj8CexuUzK5XM73EX-29" target="4Stbj8CexuUzK5XM73EX-26">
          <mxGeometry relative="1" as="geometry" />
        </mxCell>
        <mxCell id="4Stbj8CexuUzK5XM73EX-28" style="edgeStyle=orthogonalEdgeStyle;rounded=0;orthogonalLoop=1;jettySize=auto;html=1;exitX=0.5;exitY=0;exitDx=0;exitDy=0;endArrow=none;endFill=0;entryX=0;entryY=0.5;entryDx=0;entryDy=0;" edge="1" parent="1" source="4Stbj8CexuUzK5XM73EX-29" target="4Stbj8CexuUzK5XM73EX-1">
          <mxGeometry relative="1" as="geometry">
            <mxPoint y="280" as="targetPoint" />
          </mxGeometry>
        </mxCell>
        <mxCell id="4Stbj8CexuUzK5XM73EX-29" value="Tethyss Entries" style="shape=rhombus;perimeter=rhombusPerimeter;whiteSpace=wrap;html=1;align=center;fillColor=#fff2cc;strokeColor=#d6b656;" vertex="1" parent="1">
          <mxGeometry x="-195" y="340" width="100" height="60" as="geometry" />
        </mxCell>
        <mxCell id="4Stbj8CexuUzK5XM73EX-30" value="link" style="ellipse;whiteSpace=wrap;html=1;align=center;strokeColor=#82b366;verticalAlign=middle;fontFamily=Helvetica;fontSize=12;fillColor=#d5e8d4;" vertex="1" parent="1">
          <mxGeometry x="-210" y="550" width="60" height="30" as="geometry" />
        </mxCell>
        <mxCell id="4Stbj8CexuUzK5XM73EX-31" value="&lt;u&gt;entry_id&lt;/u&gt;" style="ellipse;whiteSpace=wrap;html=1;align=center;strokeColor=#82b366;verticalAlign=middle;fontFamily=Helvetica;fontSize=12;fillColor=#d5e8d4;" vertex="1" parent="1">
          <mxGeometry x="-210" y="510" width="60" height="30" as="geometry" />
        </mxCell>
        <mxCell id="4Stbj8CexuUzK5XM73EX-32" value="&lt;u&gt;kh_id&lt;/u&gt;" style="ellipse;whiteSpace=wrap;html=1;align=center;strokeColor=#82b366;verticalAlign=middle;fontFamily=Helvetica;fontSize=12;fillColor=#d5e8d4;" vertex="1" parent="1">
          <mxGeometry x="-140" y="510" width="60" height="30" as="geometry" />
        </mxCell>
        <mxCell id="4Stbj8CexuUzK5XM73EX-33" value="MHKDR" style="whiteSpace=wrap;html=1;align=center;fillColor=#dae8fc;strokeColor=#6c8ebf;" vertex="1" parent="1">
          <mxGeometry x="600" y="240" width="100" height="40" as="geometry" />
        </mxCell>
        <mxCell id="4Stbj8CexuUzK5XM73EX-34" value="Tags" style="whiteSpace=wrap;html=1;align=center;fillColor=#dae8fc;strokeColor=#6c8ebf;" vertex="1" parent="1">
          <mxGeometry x="420" y="460" width="100" height="40" as="geometry" />
        </mxCell>
        <mxCell id="4Stbj8CexuUzK5XM73EX-35" value="Authors" style="whiteSpace=wrap;html=1;align=center;fillColor=#dae8fc;strokeColor=#6c8ebf;" vertex="1" parent="1">
          <mxGeometry y="460" width="100" height="40" as="geometry" />
        </mxCell>
        <mxCell id="4Stbj8CexuUzK5XM73EX-36" style="edgeStyle=orthogonalEdgeStyle;rounded=0;orthogonalLoop=1;jettySize=auto;html=1;exitX=0.5;exitY=1;exitDx=0;exitDy=0;entryX=0.5;entryY=0;entryDx=0;entryDy=0;fontFamily=Helvetica;fontSize=12;fontColor=default;" edge="1" parent="1" source="4Stbj8CexuUzK5XM73EX-39" target="4Stbj8CexuUzK5XM73EX-35">
          <mxGeometry relative="1" as="geometry" />
        </mxCell>
        <mxCell id="4Stbj8CexuUzK5XM73EX-37" style="rounded=0;orthogonalLoop=1;jettySize=auto;html=1;exitX=0.5;exitY=0;exitDx=0;exitDy=0;entryX=0;entryY=1;entryDx=0;entryDy=0;" edge="1" parent="1" source="4Stbj8CexuUzK5XM73EX-39" target="4Stbj8CexuUzK5XM73EX-1">
          <mxGeometry relative="1" as="geometry" />
        </mxCell>
        <mxCell id="4Stbj8CexuUzK5XM73EX-38" style="rounded=0;orthogonalLoop=1;jettySize=auto;html=1;exitX=0.5;exitY=0;exitDx=0;exitDy=0;entryX=0;entryY=1;entryDx=0;entryDy=0;" edge="1" parent="1" source="4Stbj8CexuUzK5XM73EX-39" target="4Stbj8CexuUzK5XM73EX-33">
          <mxGeometry relative="1" as="geometry" />
        </mxCell>
        <mxCell id="4Stbj8CexuUzK5XM73EX-39" value="compose" style="shape=rhombus;perimeter=rhombusPerimeter;whiteSpace=wrap;html=1;align=center;fillColor=#fff2cc;strokeColor=#d6b656;" vertex="1" parent="1">
          <mxGeometry y="340" width="100" height="60" as="geometry" />
        </mxCell>
        <mxCell id="4Stbj8CexuUzK5XM73EX-40" style="edgeStyle=orthogonalEdgeStyle;rounded=0;orthogonalLoop=1;jettySize=auto;html=1;exitX=0.5;exitY=1;exitDx=0;exitDy=0;fontFamily=Helvetica;fontSize=12;fontColor=default;entryX=0.5;entryY=0;entryDx=0;entryDy=0;" edge="1" parent="1" source="4Stbj8CexuUzK5XM73EX-43" target="4Stbj8CexuUzK5XM73EX-48">
          <mxGeometry relative="1" as="geometry">
            <mxPoint x="190" y="455" as="targetPoint" />
          </mxGeometry>
        </mxCell>
        <mxCell id="4Stbj8CexuUzK5XM73EX-41" style="rounded=0;orthogonalLoop=1;jettySize=auto;html=1;exitX=0.5;exitY=0;exitDx=0;exitDy=0;entryX=0;entryY=1;entryDx=0;entryDy=0;" edge="1" parent="1" source="4Stbj8CexuUzK5XM73EX-43" target="4Stbj8CexuUzK5XM73EX-1">
          <mxGeometry relative="1" as="geometry" />
        </mxCell>
        <mxCell id="4Stbj8CexuUzK5XM73EX-42" style="rounded=0;orthogonalLoop=1;jettySize=auto;html=1;exitX=0.5;exitY=0;exitDx=0;exitDy=0;entryX=0.25;entryY=1;entryDx=0;entryDy=0;" edge="1" parent="1" source="4Stbj8CexuUzK5XM73EX-43" target="4Stbj8CexuUzK5XM73EX-33">
          <mxGeometry relative="1" as="geometry" />
        </mxCell>
        <mxCell id="4Stbj8CexuUzK5XM73EX-43" value="affiliated" style="shape=rhombus;perimeter=rhombusPerimeter;whiteSpace=wrap;html=1;align=center;fillColor=#fff2cc;strokeColor=#d6b656;" vertex="1" parent="1">
          <mxGeometry x="140" y="340" width="100" height="60" as="geometry" />
        </mxCell>
        <mxCell id="4Stbj8CexuUzK5XM73EX-44" style="edgeStyle=orthogonalEdgeStyle;rounded=0;orthogonalLoop=1;jettySize=auto;html=1;exitX=0.5;exitY=1;exitDx=0;exitDy=0;entryX=0.5;entryY=0;entryDx=0;entryDy=0;fontFamily=Helvetica;fontSize=12;fontColor=default;" edge="1" parent="1" source="4Stbj8CexuUzK5XM73EX-47" target="4Stbj8CexuUzK5XM73EX-34">
          <mxGeometry relative="1" as="geometry" />
        </mxCell>
        <mxCell id="4Stbj8CexuUzK5XM73EX-45" style="rounded=0;orthogonalLoop=1;jettySize=auto;html=1;exitX=0.5;exitY=0;exitDx=0;exitDy=0;entryX=0.5;entryY=1;entryDx=0;entryDy=0;" edge="1" parent="1" source="4Stbj8CexuUzK5XM73EX-47" target="4Stbj8CexuUzK5XM73EX-1">
          <mxGeometry relative="1" as="geometry" />
        </mxCell>
        <mxCell id="4Stbj8CexuUzK5XM73EX-46" style="rounded=0;orthogonalLoop=1;jettySize=auto;html=1;exitX=0.5;exitY=0;exitDx=0;exitDy=0;entryX=0.75;entryY=1;entryDx=0;entryDy=0;" edge="1" parent="1" source="4Stbj8CexuUzK5XM73EX-47" target="4Stbj8CexuUzK5XM73EX-33">
          <mxGeometry relative="1" as="geometry" />
        </mxCell>
        <mxCell id="4Stbj8CexuUzK5XM73EX-47" value="assigned" style="shape=rhombus;perimeter=rhombusPerimeter;whiteSpace=wrap;html=1;align=center;fillColor=#fff2cc;strokeColor=#d6b656;" vertex="1" parent="1">
          <mxGeometry x="420" y="340" width="100" height="60" as="geometry" />
        </mxCell>
        <mxCell id="4Stbj8CexuUzK5XM73EX-48" value="Organizations" style="whiteSpace=wrap;html=1;align=center;fillColor=#dae8fc;strokeColor=#6c8ebf;" vertex="1" parent="1">
          <mxGeometry x="140" y="460" width="100" height="40" as="geometry" />
        </mxCell>
        <mxCell id="4Stbj8CexuUzK5XM73EX-49" value="Location" style="whiteSpace=wrap;html=1;align=center;fillColor=#dae8fc;strokeColor=#6c8ebf;" vertex="1" parent="1">
          <mxGeometry x="560" y="460" width="100" height="40" as="geometry" />
        </mxCell>
        <mxCell id="4Stbj8CexuUzK5XM73EX-50" style="edgeStyle=orthogonalEdgeStyle;rounded=0;orthogonalLoop=1;jettySize=auto;html=1;exitX=0.5;exitY=1;exitDx=0;exitDy=0;entryX=0.5;entryY=0;entryDx=0;entryDy=0;fontFamily=Helvetica;fontSize=12;fontColor=default;" edge="1" parent="1" source="4Stbj8CexuUzK5XM73EX-53" target="4Stbj8CexuUzK5XM73EX-49">
          <mxGeometry relative="1" as="geometry" />
        </mxCell>
        <mxCell id="4Stbj8CexuUzK5XM73EX-51" style="rounded=0;orthogonalLoop=1;jettySize=auto;html=1;exitX=0.5;exitY=0;exitDx=0;exitDy=0;entryX=0.75;entryY=1;entryDx=0;entryDy=0;" edge="1" parent="1" source="4Stbj8CexuUzK5XM73EX-53" target="4Stbj8CexuUzK5XM73EX-1">
          <mxGeometry relative="1" as="geometry" />
        </mxCell>
        <mxCell id="4Stbj8CexuUzK5XM73EX-52" style="rounded=0;orthogonalLoop=1;jettySize=auto;html=1;exitX=0.5;exitY=0;exitDx=0;exitDy=0;entryX=1;entryY=1;entryDx=0;entryDy=0;" edge="1" parent="1" source="4Stbj8CexuUzK5XM73EX-53" target="4Stbj8CexuUzK5XM73EX-33">
          <mxGeometry relative="1" as="geometry" />
        </mxCell>
        <mxCell id="4Stbj8CexuUzK5XM73EX-53" value="occur" style="shape=rhombus;perimeter=rhombusPerimeter;whiteSpace=wrap;html=1;align=center;fillColor=#fff2cc;strokeColor=#d6b656;" vertex="1" parent="1">
          <mxGeometry x="560" y="340" width="100" height="60" as="geometry" />
        </mxCell>
        <mxCell id="4Stbj8CexuUzK5XM73EX-54" value="auth_name" style="ellipse;whiteSpace=wrap;html=1;align=center;strokeColor=#82b366;verticalAlign=middle;fontFamily=Helvetica;fontSize=12;fillColor=#d5e8d4;" vertex="1" parent="1">
          <mxGeometry x="20" y="550" width="60" height="30" as="geometry" />
        </mxCell>
        <mxCell id="4Stbj8CexuUzK5XM73EX-55" value="&lt;u&gt;auth_id&lt;/u&gt;" style="ellipse;whiteSpace=wrap;html=1;align=center;strokeColor=#82b366;verticalAlign=middle;fontFamily=Helvetica;fontSize=12;fillColor=#d5e8d4;" vertex="1" parent="1">
          <mxGeometry x="20" y="510" width="60" height="30" as="geometry" />
        </mxCell>
        <mxCell id="4Stbj8CexuUzK5XM73EX-56" value="tag" style="ellipse;whiteSpace=wrap;html=1;align=center;strokeColor=#82b366;verticalAlign=middle;fontFamily=Helvetica;fontSize=12;fillColor=#d5e8d4;" vertex="1" parent="1">
          <mxGeometry x="440" y="550" width="60" height="30" as="geometry" />
        </mxCell>
        <mxCell id="4Stbj8CexuUzK5XM73EX-57" value="&lt;u&gt;tag_id&lt;/u&gt;" style="ellipse;whiteSpace=wrap;html=1;align=center;strokeColor=#82b366;verticalAlign=middle;fontFamily=Helvetica;fontSize=12;fillColor=#d5e8d4;" vertex="1" parent="1">
          <mxGeometry x="440" y="510" width="60" height="30" as="geometry" />
        </mxCell>
        <mxCell id="4Stbj8CexuUzK5XM73EX-58" value="lat" style="ellipse;whiteSpace=wrap;html=1;align=center;strokeColor=#82b366;verticalAlign=middle;fontFamily=Helvetica;fontSize=12;fillColor=#d5e8d4;" vertex="1" parent="1">
          <mxGeometry x="545" y="550" width="60" height="30" as="geometry" />
        </mxCell>
        <mxCell id="4Stbj8CexuUzK5XM73EX-59" value="long" style="ellipse;whiteSpace=wrap;html=1;align=center;strokeColor=#82b366;verticalAlign=middle;fontFamily=Helvetica;fontSize=12;fillColor=#d5e8d4;" vertex="1" parent="1">
          <mxGeometry x="615" y="550" width="60" height="30" as="geometry" />
        </mxCell>
        <mxCell id="4Stbj8CexuUzK5XM73EX-60" value="&lt;u&gt;loc_id&lt;/u&gt;" style="ellipse;whiteSpace=wrap;html=1;align=center;strokeColor=#82b366;verticalAlign=middle;fontFamily=Helvetica;fontSize=12;fillColor=#d5e8d4;" vertex="1" parent="1">
          <mxGeometry x="545" y="510" width="60" height="30" as="geometry" />
        </mxCell>
        <mxCell id="4Stbj8CexuUzK5XM73EX-61" value="&lt;u&gt;org_id&lt;/u&gt;" style="ellipse;whiteSpace=wrap;html=1;align=center;strokeColor=#82b366;verticalAlign=middle;fontFamily=Helvetica;fontSize=12;fillColor=#d5e8d4;" vertex="1" parent="1">
          <mxGeometry x="160" y="510" width="60" height="30" as="geometry" />
        </mxCell>
        <mxCell id="4Stbj8CexuUzK5XM73EX-62" value="org&lt;span style=&quot;background-color: initial;&quot;&gt;_name&lt;/span&gt;" style="ellipse;whiteSpace=wrap;html=1;align=center;strokeColor=#82b366;verticalAlign=middle;fontFamily=Helvetica;fontSize=12;fillColor=#d5e8d4;" vertex="1" parent="1">
          <mxGeometry x="160" y="550" width="60" height="30" as="geometry" />
        </mxCell>
        <mxCell id="4Stbj8CexuUzK5XM73EX-63" value="Resource" style="whiteSpace=wrap;html=1;align=center;fillColor=#dae8fc;strokeColor=#6c8ebf;" vertex="1" parent="1">
          <mxGeometry x="910" y="460" width="100" height="40" as="geometry" />
        </mxCell>
        <mxCell id="4Stbj8CexuUzK5XM73EX-64" style="edgeStyle=orthogonalEdgeStyle;rounded=0;orthogonalLoop=1;jettySize=auto;html=1;exitX=0.5;exitY=1;exitDx=0;exitDy=0;entryX=0.5;entryY=0;entryDx=0;entryDy=0;fontFamily=Helvetica;fontSize=12;fontColor=default;" edge="1" parent="1" source="4Stbj8CexuUzK5XM73EX-66" target="4Stbj8CexuUzK5XM73EX-63">
          <mxGeometry relative="1" as="geometry" />
        </mxCell>
        <mxCell id="4Stbj8CexuUzK5XM73EX-65" style="edgeStyle=orthogonalEdgeStyle;rounded=0;orthogonalLoop=1;jettySize=auto;html=1;exitX=0.5;exitY=0;exitDx=0;exitDy=0;endArrow=none;endFill=0;" edge="1" parent="1" source="4Stbj8CexuUzK5XM73EX-66">
          <mxGeometry relative="1" as="geometry">
            <mxPoint x="700" y="270" as="targetPoint" />
            <Array as="points">
              <mxPoint x="960" y="270" />
              <mxPoint x="700" y="270" />
            </Array>
          </mxGeometry>
        </mxCell>
        <mxCell id="4Stbj8CexuUzK5XM73EX-66" value="MHKDR Entries" style="shape=rhombus;perimeter=rhombusPerimeter;whiteSpace=wrap;html=1;align=center;fillColor=#fff2cc;strokeColor=#d6b656;" vertex="1" parent="1">
          <mxGeometry x="910" y="340" width="100" height="60" as="geometry" />
        </mxCell>
        <mxCell id="4Stbj8CexuUzK5XM73EX-67" value="description" style="ellipse;whiteSpace=wrap;html=1;align=center;strokeColor=#82b366;verticalAlign=middle;fontFamily=Helvetica;fontSize=12;fillColor=#d5e8d4;" vertex="1" parent="1">
          <mxGeometry x="965" y="550" width="60" height="30" as="geometry" />
        </mxCell>
        <mxCell id="4Stbj8CexuUzK5XM73EX-68" value="name" style="ellipse;whiteSpace=wrap;html=1;align=center;strokeColor=#82b366;verticalAlign=middle;fontFamily=Helvetica;fontSize=12;fillColor=#d5e8d4;" vertex="1" parent="1">
          <mxGeometry x="895" y="550" width="60" height="30" as="geometry" />
        </mxCell>
        <mxCell id="4Stbj8CexuUzK5XM73EX-69" value="link" style="ellipse;whiteSpace=wrap;html=1;align=center;strokeColor=#82b366;verticalAlign=middle;fontFamily=Helvetica;fontSize=12;fillColor=#d5e8d4;" vertex="1" parent="1">
          <mxGeometry x="895" y="590" width="60" height="30" as="geometry" />
        </mxCell>
        <mxCell id="4Stbj8CexuUzK5XM73EX-70" value="DOI" style="ellipse;whiteSpace=wrap;html=1;align=center;strokeColor=#82b366;verticalAlign=middle;fontFamily=Helvetica;fontSize=12;fillColor=#d5e8d4;" vertex="1" parent="1">
          <mxGeometry x="1035" y="550" width="60" height="30" as="geometry" />
        </mxCell>
        <mxCell id="4Stbj8CexuUzK5XM73EX-71" value="technologyType" style="whiteSpace=wrap;html=1;align=center;fillColor=#dae8fc;strokeColor=#6c8ebf;" vertex="1" parent="1">
          <mxGeometry x="280" y="460" width="100" height="40" as="geometry" />
        </mxCell>
        <mxCell id="4Stbj8CexuUzK5XM73EX-72" style="edgeStyle=orthogonalEdgeStyle;rounded=0;orthogonalLoop=1;jettySize=auto;html=1;exitX=0.5;exitY=1;exitDx=0;exitDy=0;entryX=0.5;entryY=0;entryDx=0;entryDy=0;fontFamily=Helvetica;fontSize=12;fontColor=default;" edge="1" parent="1" source="4Stbj8CexuUzK5XM73EX-75" target="4Stbj8CexuUzK5XM73EX-71">
          <mxGeometry relative="1" as="geometry" />
        </mxCell>
        <mxCell id="4Stbj8CexuUzK5XM73EX-73" style="rounded=0;orthogonalLoop=1;jettySize=auto;html=1;exitX=0.5;exitY=0;exitDx=0;exitDy=0;entryX=0.25;entryY=1;entryDx=0;entryDy=0;" edge="1" parent="1" source="4Stbj8CexuUzK5XM73EX-75" target="4Stbj8CexuUzK5XM73EX-1">
          <mxGeometry relative="1" as="geometry" />
        </mxCell>
        <mxCell id="4Stbj8CexuUzK5XM73EX-74" style="rounded=0;orthogonalLoop=1;jettySize=auto;html=1;exitX=0.5;exitY=0;exitDx=0;exitDy=0;entryX=0.5;entryY=1;entryDx=0;entryDy=0;" edge="1" parent="1" source="4Stbj8CexuUzK5XM73EX-75" target="4Stbj8CexuUzK5XM73EX-33">
          <mxGeometry relative="1" as="geometry" />
        </mxCell>
        <mxCell id="4Stbj8CexuUzK5XM73EX-75" value="utilize" style="shape=rhombus;perimeter=rhombusPerimeter;whiteSpace=wrap;html=1;align=center;fillColor=#fff2cc;strokeColor=#d6b656;" vertex="1" parent="1">
          <mxGeometry x="280" y="340" width="100" height="60" as="geometry" />
        </mxCell>
        <mxCell id="4Stbj8CexuUzK5XM73EX-76" value="type_name" style="ellipse;whiteSpace=wrap;html=1;align=center;strokeColor=#82b366;verticalAlign=middle;fontFamily=Helvetica;fontSize=12;fillColor=#d5e8d4;" vertex="1" parent="1">
          <mxGeometry x="300" y="550" width="60" height="30" as="geometry" />
        </mxCell>
        <mxCell id="4Stbj8CexuUzK5XM73EX-77" value="&lt;u&gt;type_id&lt;/u&gt;" style="ellipse;whiteSpace=wrap;html=1;align=center;strokeColor=#82b366;verticalAlign=middle;fontFamily=Helvetica;fontSize=12;fillColor=#d5e8d4;" vertex="1" parent="1">
          <mxGeometry x="300" y="515" width="60" height="30" as="geometry" />
        </mxCell>
        <mxCell id="4Stbj8CexuUzK5XM73EX-78" value="signatureProject" style="whiteSpace=wrap;html=1;align=center;fillColor=#dae8fc;strokeColor=#6c8ebf;" vertex="1" parent="1">
          <mxGeometry x="700" y="460" width="100" height="40" as="geometry" />
        </mxCell>
        <mxCell id="4Stbj8CexuUzK5XM73EX-79" style="edgeStyle=orthogonalEdgeStyle;rounded=0;orthogonalLoop=1;jettySize=auto;html=1;exitX=0.5;exitY=1;exitDx=0;exitDy=0;entryX=0.5;entryY=0;entryDx=0;entryDy=0;fontFamily=Helvetica;fontSize=12;fontColor=default;" edge="1" parent="1" source="4Stbj8CexuUzK5XM73EX-82" target="4Stbj8CexuUzK5XM73EX-78">
          <mxGeometry relative="1" as="geometry" />
        </mxCell>
        <mxCell id="4Stbj8CexuUzK5XM73EX-80" style="rounded=0;orthogonalLoop=1;jettySize=auto;html=1;exitX=0.5;exitY=0;exitDx=0;exitDy=0;entryX=1;entryY=1;entryDx=0;entryDy=0;" edge="1" parent="1" source="4Stbj8CexuUzK5XM73EX-82" target="4Stbj8CexuUzK5XM73EX-33">
          <mxGeometry relative="1" as="geometry" />
        </mxCell>
        <mxCell id="4Stbj8CexuUzK5XM73EX-81" style="rounded=0;orthogonalLoop=1;jettySize=auto;html=1;exitX=0.5;exitY=0;exitDx=0;exitDy=0;entryX=1;entryY=1;entryDx=0;entryDy=0;" edge="1" parent="1" source="4Stbj8CexuUzK5XM73EX-82" target="4Stbj8CexuUzK5XM73EX-1">
          <mxGeometry relative="1" as="geometry" />
        </mxCell>
        <mxCell id="4Stbj8CexuUzK5XM73EX-82" value="relate" style="shape=rhombus;perimeter=rhombusPerimeter;whiteSpace=wrap;html=1;align=center;fillColor=#fff2cc;strokeColor=#d6b656;" vertex="1" parent="1">
          <mxGeometry x="700" y="340" width="100" height="60" as="geometry" />
        </mxCell>
        <mxCell id="4Stbj8CexuUzK5XM73EX-83" value="sigp_name" style="ellipse;whiteSpace=wrap;html=1;align=center;strokeColor=#82b366;verticalAlign=middle;fontFamily=Helvetica;fontSize=12;fillColor=#d5e8d4;" vertex="1" parent="1">
          <mxGeometry x="720" y="550" width="60" height="30" as="geometry" />
        </mxCell>
        <mxCell id="4Stbj8CexuUzK5XM73EX-84" value="&lt;u&gt;sigp_id&lt;/u&gt;" style="ellipse;whiteSpace=wrap;html=1;align=center;strokeColor=#82b366;verticalAlign=middle;fontFamily=Helvetica;fontSize=12;fillColor=#d5e8d4;" vertex="1" parent="1">
          <mxGeometry x="720" y="510" width="60" height="30" as="geometry" />
        </mxCell>
        <mxCell id="4Stbj8CexuUzK5XM73EX-85" value="&lt;u&gt;entry_id&lt;/u&gt;" style="ellipse;whiteSpace=wrap;html=1;align=center;strokeColor=#82b366;verticalAlign=middle;fontFamily=Helvetica;fontSize=12;fillColor=#d5e8d4;" vertex="1" parent="1">
          <mxGeometry x="895" y="510" width="60" height="30" as="geometry" />
        </mxCell>
        <mxCell id="4Stbj8CexuUzK5XM73EX-86" value="&lt;u&gt;kh_id&lt;/u&gt;" style="ellipse;whiteSpace=wrap;html=1;align=center;strokeColor=#82b366;verticalAlign=middle;fontFamily=Helvetica;fontSize=12;fillColor=#d5e8d4;" vertex="1" parent="1">
          <mxGeometry x="965" y="510" width="60" height="30" as="geometry" />
        </mxCell>
        <mxCell id="4Stbj8CexuUzK5XM73EX-87" value="DOI" style="whiteSpace=wrap;html=1;align=center;fillColor=#dae8fc;strokeColor=#6c8ebf;" vertex="1" parent="1">
          <mxGeometry x="1050" y="460" width="100" height="40" as="geometry" />
        </mxCell>
        <mxCell id="4Stbj8CexuUzK5XM73EX-88" style="edgeStyle=orthogonalEdgeStyle;rounded=0;orthogonalLoop=1;jettySize=auto;html=1;exitX=0.5;exitY=1;exitDx=0;exitDy=0;entryX=0.5;entryY=0;entryDx=0;entryDy=0;fontFamily=Helvetica;fontSize=12;fontColor=default;" edge="1" parent="1" source="4Stbj8CexuUzK5XM73EX-90" target="4Stbj8CexuUzK5XM73EX-87">
          <mxGeometry relative="1" as="geometry" />
        </mxCell>
        <mxCell id="4Stbj8CexuUzK5XM73EX-89" style="edgeStyle=orthogonalEdgeStyle;rounded=0;orthogonalLoop=1;jettySize=auto;html=1;exitX=0.5;exitY=0;exitDx=0;exitDy=0;entryX=1;entryY=0.25;entryDx=0;entryDy=0;endArrow=none;endFill=0;" edge="1" parent="1" source="4Stbj8CexuUzK5XM73EX-90" target="4Stbj8CexuUzK5XM73EX-33">
          <mxGeometry relative="1" as="geometry" />
        </mxCell>
        <mxCell id="4Stbj8CexuUzK5XM73EX-90" value="identified" style="shape=rhombus;perimeter=rhombusPerimeter;whiteSpace=wrap;html=1;align=center;fillColor=#fff2cc;strokeColor=#d6b656;" vertex="1" parent="1">
          <mxGeometry x="1050" y="340" width="100" height="60" as="geometry" />
        </mxCell>
        <mxCell id="4Stbj8CexuUzK5XM73EX-91" value="&lt;u&gt;entry_id&lt;/u&gt;" style="ellipse;whiteSpace=wrap;html=1;align=center;strokeColor=#82b366;verticalAlign=middle;fontFamily=Helvetica;fontSize=12;fillColor=#d5e8d4;" vertex="1" parent="1">
          <mxGeometry x="1035" y="510" width="60" height="30" as="geometry" />
        </mxCell>
        <mxCell id="4Stbj8CexuUzK5XM73EX-92" value="&lt;u&gt;kh_id&lt;/u&gt;" style="ellipse;whiteSpace=wrap;html=1;align=center;strokeColor=#82b366;verticalAlign=middle;fontFamily=Helvetica;fontSize=12;fillColor=#d5e8d4;" vertex="1" parent="1">
          <mxGeometry x="1105" y="510" width="60" height="30" as="geometry" />
        </mxCell>
        <mxCell id="8d_XzB5M4cLX104DX7Ex-1" style="edgeStyle=orthogonalEdgeStyle;rounded=0;orthogonalLoop=1;jettySize=auto;html=1;exitX=1;exitY=0;exitDx=0;exitDy=0;" edge="1" parent="1" source="8d_XzB5M4cLX104DX7Ex-2">
          <mxGeometry relative="1" as="geometry">
            <mxPoint x="615" y="922" as="targetPoint" />
          </mxGeometry>
        </mxCell>
        <mxCell id="8d_XzB5M4cLX104DX7Ex-2" value="Pages" style="whiteSpace=wrap;html=1;align=center;fillColor=#dae8fc;strokeColor=#6c8ebf;" vertex="1" parent="1">
          <mxGeometry x="410" y="1089" width="100" height="40" as="geometry" />
        </mxCell>
        <mxCell id="8d_XzB5M4cLX104DX7Ex-3" value="Name" style="ellipse;whiteSpace=wrap;html=1;align=center;strokeColor=#82b366;verticalAlign=middle;fontFamily=Helvetica;fontSize=12;fillColor=#d5e8d4;" vertex="1" parent="1">
          <mxGeometry x="286" y="1042" width="60" height="30" as="geometry" />
        </mxCell>
        <mxCell id="8d_XzB5M4cLX104DX7Ex-4" value="Website" style="ellipse;whiteSpace=wrap;html=1;align=center;strokeColor=#82b366;verticalAlign=middle;fontFamily=Helvetica;fontSize=12;fillColor=#d5e8d4;" vertex="1" parent="1">
          <mxGeometry x="356" y="1042" width="60" height="30" as="geometry" />
        </mxCell>
        <mxCell id="8d_XzB5M4cLX104DX7Ex-5" value="Status" style="ellipse;whiteSpace=wrap;html=1;align=center;strokeColor=#82b366;verticalAlign=middle;fontFamily=Helvetica;fontSize=12;fillColor=#d5e8d4;" vertex="1" parent="1">
          <mxGeometry x="566" y="1042" width="60" height="30" as="geometry" />
        </mxCell>
        <mxCell id="8d_XzB5M4cLX104DX7Ex-6" value="Description" style="ellipse;whiteSpace=wrap;html=1;align=center;strokeColor=#82b366;verticalAlign=middle;fontFamily=Helvetica;fontSize=12;fillColor=#d5e8d4;" vertex="1" parent="1">
          <mxGeometry x="426" y="1042" width="60" height="30" as="geometry" />
        </mxCell>
        <mxCell id="8d_XzB5M4cLX104DX7Ex-7" value="image URL" style="ellipse;whiteSpace=wrap;html=1;align=center;strokeColor=#82b366;verticalAlign=middle;fontFamily=Helvetica;fontSize=12;fillColor=#d5e8d4;" vertex="1" parent="1">
          <mxGeometry y="1249" width="60" height="30" as="geometry" />
        </mxCell>
        <mxCell id="8d_XzB5M4cLX104DX7Ex-8" style="edgeStyle=orthogonalEdgeStyle;rounded=0;orthogonalLoop=1;jettySize=auto;html=1;exitX=0.5;exitY=1;exitDx=0;exitDy=0;entryX=0;entryY=0.5;entryDx=0;entryDy=0;endArrow=none;endFill=0;" edge="1" parent="1" target="8d_XzB5M4cLX104DX7Ex-11">
          <mxGeometry relative="1" as="geometry">
            <mxPoint x="460" y="1144" as="sourcePoint" />
          </mxGeometry>
        </mxCell>
        <mxCell id="8d_XzB5M4cLX104DX7Ex-9" style="edgeStyle=orthogonalEdgeStyle;rounded=0;orthogonalLoop=1;jettySize=auto;html=1;exitX=0.5;exitY=1;exitDx=0;exitDy=0;entryX=0;entryY=0.5;entryDx=0;entryDy=0;endArrow=none;endFill=0;" edge="1" parent="1" target="8d_XzB5M4cLX104DX7Ex-14">
          <mxGeometry relative="1" as="geometry">
            <mxPoint x="460" y="1144" as="sourcePoint" />
          </mxGeometry>
        </mxCell>
        <mxCell id="8d_XzB5M4cLX104DX7Ex-10" style="edgeStyle=orthogonalEdgeStyle;rounded=0;orthogonalLoop=1;jettySize=auto;html=1;exitX=1;exitY=0.5;exitDx=0;exitDy=0;entryX=0.5;entryY=0;entryDx=0;entryDy=0;endArrow=none;endFill=0;" edge="1" parent="1" source="8d_XzB5M4cLX104DX7Ex-11" target="8d_XzB5M4cLX104DX7Ex-19">
          <mxGeometry relative="1" as="geometry" />
        </mxCell>
        <mxCell id="8d_XzB5M4cLX104DX7Ex-11" value="" style="triangle;whiteSpace=wrap;html=1;rotation=90;fillColor=#fff2cc;strokeColor=#d6b656;" vertex="1" parent="1">
          <mxGeometry x="1010" y="1559" width="60" height="80" as="geometry" />
        </mxCell>
        <mxCell id="8d_XzB5M4cLX104DX7Ex-12" value="is a" style="text;html=1;align=center;verticalAlign=middle;whiteSpace=wrap;rounded=0;" vertex="1" parent="1">
          <mxGeometry x="1010" y="1579" width="60" height="30" as="geometry" />
        </mxCell>
        <mxCell id="8d_XzB5M4cLX104DX7Ex-13" style="edgeStyle=orthogonalEdgeStyle;rounded=0;orthogonalLoop=1;jettySize=auto;html=1;exitX=1;exitY=0.5;exitDx=0;exitDy=0;entryX=0.5;entryY=0;entryDx=0;entryDy=0;endArrow=none;endFill=0;" edge="1" parent="1" source="8d_XzB5M4cLX104DX7Ex-14" target="8d_XzB5M4cLX104DX7Ex-16">
          <mxGeometry relative="1" as="geometry" />
        </mxCell>
        <mxCell id="8d_XzB5M4cLX104DX7Ex-14" value="" style="triangle;whiteSpace=wrap;html=1;rotation=90;fillColor=#fff2cc;strokeColor=#d6b656;" vertex="1" parent="1">
          <mxGeometry x="80" y="1169" width="60" height="80" as="geometry" />
        </mxCell>
        <mxCell id="8d_XzB5M4cLX104DX7Ex-15" value="is a" style="text;html=1;align=center;verticalAlign=middle;whiteSpace=wrap;rounded=0;" vertex="1" parent="1">
          <mxGeometry x="80" y="1189" width="60" height="30" as="geometry" />
        </mxCell>
        <mxCell id="8d_XzB5M4cLX104DX7Ex-16" value="development" style="whiteSpace=wrap;html=1;align=center;fillColor=#dae8fc;strokeColor=#6c8ebf;" vertex="1" parent="1">
          <mxGeometry x="60" y="1279" width="100" height="40" as="geometry" />
        </mxCell>
        <mxCell id="8d_XzB5M4cLX104DX7Ex-17" style="edgeStyle=orthogonalEdgeStyle;rounded=0;orthogonalLoop=1;jettySize=auto;html=1;exitX=0.25;exitY=1;exitDx=0;exitDy=0;entryX=1;entryY=0.5;entryDx=0;entryDy=0;endArrow=none;endFill=0;startArrow=classic;startFill=1;" edge="1" parent="1" source="8d_XzB5M4cLX104DX7Ex-19" target="8d_XzB5M4cLX104DX7Ex-125">
          <mxGeometry relative="1" as="geometry" />
        </mxCell>
        <mxCell id="8d_XzB5M4cLX104DX7Ex-18" style="edgeStyle=orthogonalEdgeStyle;rounded=0;orthogonalLoop=1;jettySize=auto;html=1;entryX=1;entryY=0.5;entryDx=0;entryDy=0;endArrow=none;endFill=0;startArrow=classic;startFill=1;exitX=0.5;exitY=1;exitDx=0;exitDy=0;" edge="1" parent="1" source="8d_XzB5M4cLX104DX7Ex-19" target="8d_XzB5M4cLX104DX7Ex-123">
          <mxGeometry relative="1" as="geometry">
            <mxPoint x="1050" y="1770" as="sourcePoint" />
          </mxGeometry>
        </mxCell>
        <mxCell id="8d_XzB5M4cLX104DX7Ex-19" value="organization" style="whiteSpace=wrap;html=1;align=center;fillColor=#dae8fc;strokeColor=#6c8ebf;" vertex="1" parent="1">
          <mxGeometry x="990" y="1669" width="100" height="40" as="geometry" />
        </mxCell>
        <mxCell id="8d_XzB5M4cLX104DX7Ex-20" value="file" style="ellipse;whiteSpace=wrap;html=1;align=center;strokeColor=#82b366;verticalAlign=middle;fontFamily=Helvetica;fontSize=12;fillColor=#d5e8d4;" vertex="1" parent="1">
          <mxGeometry x="1080" y="1592" width="60" height="30" as="geometry" />
        </mxCell>
        <mxCell id="8d_XzB5M4cLX104DX7Ex-21" style="edgeStyle=orthogonalEdgeStyle;rounded=0;orthogonalLoop=1;jettySize=auto;html=1;exitX=0.5;exitY=1;exitDx=0;exitDy=0;entryX=0;entryY=0.5;entryDx=0;entryDy=0;endArrow=none;endFill=0;" edge="1" parent="1" target="8d_XzB5M4cLX104DX7Ex-24">
          <mxGeometry relative="1" as="geometry">
            <mxPoint x="115" y="1337.25" as="sourcePoint" />
          </mxGeometry>
        </mxCell>
        <mxCell id="8d_XzB5M4cLX104DX7Ex-22" style="edgeStyle=orthogonalEdgeStyle;rounded=0;orthogonalLoop=1;jettySize=auto;html=1;exitX=0.5;exitY=1;exitDx=0;exitDy=0;entryX=0;entryY=0.5;entryDx=0;entryDy=0;endArrow=none;endFill=0;" edge="1" parent="1" target="8d_XzB5M4cLX104DX7Ex-27">
          <mxGeometry relative="1" as="geometry">
            <mxPoint x="115" y="1337.25" as="sourcePoint" />
          </mxGeometry>
        </mxCell>
        <mxCell id="8d_XzB5M4cLX104DX7Ex-23" style="edgeStyle=orthogonalEdgeStyle;rounded=0;orthogonalLoop=1;jettySize=auto;html=1;exitX=1;exitY=0.5;exitDx=0;exitDy=0;entryX=0.5;entryY=0;entryDx=0;entryDy=0;endArrow=none;endFill=0;" edge="1" parent="1" source="8d_XzB5M4cLX104DX7Ex-24" target="8d_XzB5M4cLX104DX7Ex-33">
          <mxGeometry relative="1" as="geometry" />
        </mxCell>
        <mxCell id="8d_XzB5M4cLX104DX7Ex-24" value="" style="triangle;whiteSpace=wrap;html=1;rotation=90;fillColor=#fff2cc;strokeColor=#d6b656;" vertex="1" parent="1">
          <mxGeometry x="306" y="1375" width="60" height="80" as="geometry" />
        </mxCell>
        <mxCell id="8d_XzB5M4cLX104DX7Ex-25" value="is a" style="text;html=1;align=center;verticalAlign=middle;whiteSpace=wrap;rounded=0;" vertex="1" parent="1">
          <mxGeometry x="306" y="1395" width="60" height="30" as="geometry" />
        </mxCell>
        <mxCell id="8d_XzB5M4cLX104DX7Ex-26" style="edgeStyle=orthogonalEdgeStyle;rounded=0;orthogonalLoop=1;jettySize=auto;html=1;exitX=1;exitY=0.5;exitDx=0;exitDy=0;entryX=0.5;entryY=0;entryDx=0;entryDy=0;endArrow=none;endFill=0;" edge="1" parent="1" source="8d_XzB5M4cLX104DX7Ex-27" target="8d_XzB5M4cLX104DX7Ex-30">
          <mxGeometry relative="1" as="geometry" />
        </mxCell>
        <mxCell id="8d_XzB5M4cLX104DX7Ex-27" value="" style="triangle;whiteSpace=wrap;html=1;rotation=90;fillColor=#fff2cc;strokeColor=#d6b656;" vertex="1" parent="1">
          <mxGeometry x="-180" y="1559.25" width="60" height="80" as="geometry" />
        </mxCell>
        <mxCell id="8d_XzB5M4cLX104DX7Ex-28" value="is a" style="text;html=1;align=center;verticalAlign=middle;whiteSpace=wrap;rounded=0;" vertex="1" parent="1">
          <mxGeometry x="-180" y="1579.25" width="60" height="30" as="geometry" />
        </mxCell>
        <mxCell id="8d_XzB5M4cLX104DX7Ex-29" style="edgeStyle=orthogonalEdgeStyle;rounded=0;orthogonalLoop=1;jettySize=auto;html=1;exitX=0.5;exitY=1;exitDx=0;exitDy=0;entryX=0;entryY=0.5;entryDx=0;entryDy=0;startArrow=classic;startFill=1;endArrow=none;endFill=0;" edge="1" parent="1" source="8d_XzB5M4cLX104DX7Ex-30" target="8d_XzB5M4cLX104DX7Ex-121">
          <mxGeometry relative="1" as="geometry" />
        </mxCell>
        <mxCell id="8d_XzB5M4cLX104DX7Ex-30" value="device" style="whiteSpace=wrap;html=1;align=center;fillColor=#dae8fc;strokeColor=#6c8ebf;" vertex="1" parent="1">
          <mxGeometry x="-200" y="1669.25" width="100" height="40" as="geometry" />
        </mxCell>
        <mxCell id="8d_XzB5M4cLX104DX7Ex-31" style="edgeStyle=orthogonalEdgeStyle;rounded=0;orthogonalLoop=1;jettySize=auto;html=1;exitX=0.5;exitY=1;exitDx=0;exitDy=0;entryX=0;entryY=0.5;entryDx=0;entryDy=0;" edge="1" parent="1" source="8d_XzB5M4cLX104DX7Ex-33" target="8d_XzB5M4cLX104DX7Ex-35">
          <mxGeometry relative="1" as="geometry" />
        </mxCell>
        <mxCell id="8d_XzB5M4cLX104DX7Ex-32" style="edgeStyle=orthogonalEdgeStyle;rounded=0;orthogonalLoop=1;jettySize=auto;html=1;exitX=0.5;exitY=1;exitDx=0;exitDy=0;entryX=0;entryY=0.5;entryDx=0;entryDy=0;" edge="1" parent="1" source="8d_XzB5M4cLX104DX7Ex-33" target="8d_XzB5M4cLX104DX7Ex-38">
          <mxGeometry relative="1" as="geometry" />
        </mxCell>
        <mxCell id="8d_XzB5M4cLX104DX7Ex-33" value="implementation" style="whiteSpace=wrap;html=1;align=center;fillColor=#dae8fc;strokeColor=#6c8ebf;" vertex="1" parent="1">
          <mxGeometry x="286" y="1485" width="100" height="40" as="geometry" />
        </mxCell>
        <mxCell id="8d_XzB5M4cLX104DX7Ex-34" style="edgeStyle=orthogonalEdgeStyle;rounded=0;orthogonalLoop=1;jettySize=auto;html=1;exitX=1;exitY=0.5;exitDx=0;exitDy=0;entryX=0.5;entryY=0;entryDx=0;entryDy=0;endArrow=none;endFill=0;" edge="1" parent="1" source="8d_XzB5M4cLX104DX7Ex-35" target="8d_XzB5M4cLX104DX7Ex-42">
          <mxGeometry relative="1" as="geometry" />
        </mxCell>
        <mxCell id="8d_XzB5M4cLX104DX7Ex-35" value="" style="triangle;whiteSpace=wrap;html=1;rotation=90;fillColor=#fff2cc;strokeColor=#d6b656;" vertex="1" parent="1">
          <mxGeometry x="445" y="1559" width="60" height="80" as="geometry" />
        </mxCell>
        <mxCell id="8d_XzB5M4cLX104DX7Ex-36" value="is a" style="text;html=1;align=center;verticalAlign=middle;whiteSpace=wrap;rounded=0;" vertex="1" parent="1">
          <mxGeometry x="445" y="1579" width="60" height="30" as="geometry" />
        </mxCell>
        <mxCell id="8d_XzB5M4cLX104DX7Ex-37" style="edgeStyle=orthogonalEdgeStyle;rounded=0;orthogonalLoop=1;jettySize=auto;html=1;exitX=1;exitY=0.5;exitDx=0;exitDy=0;entryX=0.5;entryY=0;entryDx=0;entryDy=0;endArrow=none;endFill=0;" edge="1" parent="1" source="8d_XzB5M4cLX104DX7Ex-38" target="8d_XzB5M4cLX104DX7Ex-41">
          <mxGeometry relative="1" as="geometry" />
        </mxCell>
        <mxCell id="8d_XzB5M4cLX104DX7Ex-38" value="" style="triangle;whiteSpace=wrap;html=1;rotation=90;fillColor=#fff2cc;strokeColor=#d6b656;" vertex="1" parent="1">
          <mxGeometry x="180" y="1559.25" width="60" height="80" as="geometry" />
        </mxCell>
        <mxCell id="8d_XzB5M4cLX104DX7Ex-39" value="is a" style="text;html=1;align=center;verticalAlign=middle;whiteSpace=wrap;rounded=0;" vertex="1" parent="1">
          <mxGeometry x="180" y="1579.25" width="60" height="30" as="geometry" />
        </mxCell>
        <mxCell id="8d_XzB5M4cLX104DX7Ex-40" style="edgeStyle=orthogonalEdgeStyle;rounded=0;orthogonalLoop=1;jettySize=auto;html=1;exitX=0.25;exitY=1;exitDx=0;exitDy=0;entryX=1;entryY=0.5;entryDx=0;entryDy=0;endArrow=none;endFill=0;startArrow=classic;startFill=1;" edge="1" parent="1" source="8d_XzB5M4cLX104DX7Ex-41" target="8d_XzB5M4cLX104DX7Ex-119">
          <mxGeometry relative="1" as="geometry" />
        </mxCell>
        <mxCell id="8d_XzB5M4cLX104DX7Ex-41" value="project" style="whiteSpace=wrap;html=1;align=center;fillColor=#dae8fc;strokeColor=#6c8ebf;" vertex="1" parent="1">
          <mxGeometry x="160" y="1669.25" width="100" height="40" as="geometry" />
        </mxCell>
        <mxCell id="8d_XzB5M4cLX104DX7Ex-42" value="test_site" style="whiteSpace=wrap;html=1;align=center;fillColor=#dae8fc;strokeColor=#6c8ebf;" vertex="1" parent="1">
          <mxGeometry x="425" y="1669" width="100" height="40" as="geometry" />
        </mxCell>
        <mxCell id="8d_XzB5M4cLX104DX7Ex-43" value="waterbody name" style="ellipse;whiteSpace=wrap;html=1;align=center;strokeColor=#82b366;verticalAlign=middle;fontFamily=Helvetica;fontSize=12;fillColor=#d5e8d4;" vertex="1" parent="1">
          <mxGeometry x="396" y="1442.38" width="60" height="30" as="geometry" />
        </mxCell>
        <mxCell id="8d_XzB5M4cLX104DX7Ex-44" value="site characteristics" style="ellipse;whiteSpace=wrap;html=1;align=center;strokeColor=#82b366;verticalAlign=middle;fontFamily=Helvetica;fontSize=12;fillColor=#d5e8d4;" vertex="1" parent="1">
          <mxGeometry x="466" y="1440.38" width="60" height="30" as="geometry" />
        </mxCell>
        <mxCell id="8d_XzB5M4cLX104DX7Ex-45" value="country" style="ellipse;whiteSpace=wrap;html=1;align=center;strokeColor=#82b366;verticalAlign=middle;fontFamily=Helvetica;fontSize=12;fillColor=#d5e8d4;" vertex="1" parent="1">
          <mxGeometry x="536" y="1442.38" width="60" height="30" as="geometry" />
        </mxCell>
        <mxCell id="8d_XzB5M4cLX104DX7Ex-46" value="coordinates" style="ellipse;whiteSpace=wrap;html=1;align=center;strokeColor=#82b366;verticalAlign=middle;fontFamily=Helvetica;fontSize=12;fillColor=#d5e8d4;" vertex="1" parent="1">
          <mxGeometry x="396" y="1480.63" width="60" height="30" as="geometry" />
        </mxCell>
        <mxCell id="8d_XzB5M4cLX104DX7Ex-47" value="Start Month and Year" style="ellipse;whiteSpace=wrap;html=1;align=center;strokeColor=#82b366;verticalAlign=middle;fontFamily=Helvetica;fontSize=12;fillColor=#d5e8d4;" vertex="1" parent="1">
          <mxGeometry x="525" y="1632" width="60" height="30" as="geometry" />
        </mxCell>
        <mxCell id="8d_XzB5M4cLX104DX7Ex-48" value="End Month and Year" style="ellipse;whiteSpace=wrap;html=1;align=center;strokeColor=#82b366;verticalAlign=middle;fontFamily=Helvetica;fontSize=12;fillColor=#d5e8d4;" vertex="1" parent="1">
          <mxGeometry x="595" y="1632" width="60" height="30" as="geometry" />
        </mxCell>
        <mxCell id="8d_XzB5M4cLX104DX7Ex-49" value="Number of Berths" style="ellipse;whiteSpace=wrap;html=1;align=center;strokeColor=#82b366;verticalAlign=middle;fontFamily=Helvetica;fontSize=12;fillColor=#d5e8d4;" vertex="1" parent="1">
          <mxGeometry x="675" y="1632" width="60" height="30" as="geometry" />
        </mxCell>
        <mxCell id="8d_XzB5M4cLX104DX7Ex-50" value="start year" style="ellipse;whiteSpace=wrap;html=1;align=center;strokeColor=#82b366;verticalAlign=middle;fontFamily=Helvetica;fontSize=12;fillColor=#d5e8d4;" vertex="1" parent="1">
          <mxGeometry x="40" y="1572" width="60" height="30" as="geometry" />
        </mxCell>
        <mxCell id="8d_XzB5M4cLX104DX7Ex-51" value="life cycle" style="ellipse;whiteSpace=wrap;html=1;align=center;strokeColor=#82b366;verticalAlign=middle;fontFamily=Helvetica;fontSize=12;fillColor=#d5e8d4;" vertex="1" parent="1">
          <mxGeometry x="-30" y="1572" width="60" height="30" as="geometry" />
        </mxCell>
        <mxCell id="8d_XzB5M4cLX104DX7Ex-52" value="scale" style="ellipse;whiteSpace=wrap;html=1;align=center;strokeColor=#82b366;verticalAlign=middle;fontFamily=Helvetica;fontSize=12;fillColor=#d5e8d4;" vertex="1" parent="1">
          <mxGeometry x="110" y="1609" width="60" height="30" as="geometry" />
        </mxCell>
        <mxCell id="8d_XzB5M4cLX104DX7Ex-53" value="capacity" style="ellipse;whiteSpace=wrap;html=1;align=center;strokeColor=#82b366;verticalAlign=middle;fontFamily=Helvetica;fontSize=12;fillColor=#d5e8d4;" vertex="1" parent="1">
          <mxGeometry x="541" y="1480.63" width="60" height="30" as="geometry" />
        </mxCell>
        <mxCell id="8d_XzB5M4cLX104DX7Ex-54" value="number of devices" style="ellipse;whiteSpace=wrap;html=1;align=center;strokeColor=#82b366;verticalAlign=middle;fontFamily=Helvetica;fontSize=12;fillColor=#d5e8d4;" vertex="1" parent="1">
          <mxGeometry x="-30" y="1644" width="60" height="30" as="geometry" />
        </mxCell>
        <mxCell id="8d_XzB5M4cLX104DX7Ex-55" value="Connectivity" style="ellipse;whiteSpace=wrap;html=1;align=center;strokeColor=#82b366;verticalAlign=middle;fontFamily=Helvetica;fontSize=12;fillColor=#d5e8d4;" vertex="1" parent="1">
          <mxGeometry x="466" y="1482.63" width="60" height="30" as="geometry" />
        </mxCell>
        <mxCell id="8d_XzB5M4cLX104DX7Ex-56" value="end year" style="ellipse;whiteSpace=wrap;html=1;align=center;strokeColor=#82b366;verticalAlign=middle;fontFamily=Helvetica;fontSize=12;fillColor=#d5e8d4;" vertex="1" parent="1">
          <mxGeometry x="110" y="1572" width="60" height="30" as="geometry" />
        </mxCell>
        <mxCell id="8d_XzB5M4cLX104DX7Ex-57" value="operational start m/yr" style="ellipse;whiteSpace=wrap;html=1;align=center;strokeColor=#82b366;verticalAlign=middle;fontFamily=Helvetica;fontSize=12;fillColor=#d5e8d4;" vertex="1" parent="1">
          <mxGeometry x="-30" y="1609" width="60" height="30" as="geometry" />
        </mxCell>
        <mxCell id="8d_XzB5M4cLX104DX7Ex-58" value="operational end m/yr" style="ellipse;whiteSpace=wrap;html=1;align=center;strokeColor=#82b366;verticalAlign=middle;fontFamily=Helvetica;fontSize=12;fillColor=#d5e8d4;" vertex="1" parent="1">
          <mxGeometry x="40" y="1609" width="60" height="30" as="geometry" />
        </mxCell>
        <mxCell id="8d_XzB5M4cLX104DX7Ex-59" value="Resource Type" style="ellipse;whiteSpace=wrap;html=1;align=center;strokeColor=#82b366;verticalAlign=middle;fontFamily=Helvetica;fontSize=12;fillColor=#d5e8d4;" vertex="1" parent="1">
          <mxGeometry x="-70" y="1249" width="60" height="30" as="geometry" />
        </mxCell>
        <mxCell id="8d_XzB5M4cLX104DX7Ex-60" value="Water Column Position" style="ellipse;whiteSpace=wrap;html=1;align=center;strokeColor=#82b366;verticalAlign=middle;fontFamily=Helvetica;fontSize=12;fillColor=#d5e8d4;" vertex="1" parent="1">
          <mxGeometry x="-345" y="1579.75" width="60" height="30" as="geometry" />
        </mxCell>
        <mxCell id="8d_XzB5M4cLX104DX7Ex-61" value="Technology Type" style="ellipse;whiteSpace=wrap;html=1;align=center;strokeColor=#82b366;verticalAlign=middle;fontFamily=Helvetica;fontSize=12;fillColor=#d5e8d4;" vertex="1" parent="1">
          <mxGeometry x="-415" y="1579.75" width="60" height="30" as="geometry" />
        </mxCell>
        <mxCell id="8d_XzB5M4cLX104DX7Ex-62" value="Surface Expression" style="ellipse;whiteSpace=wrap;html=1;align=center;strokeColor=#82b366;verticalAlign=middle;fontFamily=Helvetica;fontSize=12;fillColor=#d5e8d4;" vertex="1" parent="1">
          <mxGeometry x="-275" y="1579.75" width="60" height="30" as="geometry" />
        </mxCell>
        <mxCell id="8d_XzB5M4cLX104DX7Ex-63" value="Max Rated Power Capacity (KW)" style="ellipse;whiteSpace=wrap;html=1;align=center;strokeColor=#82b366;verticalAlign=middle;fontFamily=Helvetica;fontSize=12;fillColor=#d5e8d4;" vertex="1" parent="1">
          <mxGeometry x="-415" y="1639.75" width="60" height="30" as="geometry" />
        </mxCell>
        <mxCell id="8d_XzB5M4cLX104DX7Ex-64" value="Power Take Off (PTO)" style="ellipse;whiteSpace=wrap;html=1;align=center;strokeColor=#82b366;verticalAlign=middle;fontFamily=Helvetica;fontSize=12;fillColor=#d5e8d4;" vertex="1" parent="1">
          <mxGeometry x="-485" y="1639.75" width="60" height="30" as="geometry" />
        </mxCell>
        <mxCell id="8d_XzB5M4cLX104DX7Ex-65" value="Est TRL" style="ellipse;whiteSpace=wrap;html=1;align=center;strokeColor=#82b366;verticalAlign=middle;fontFamily=Helvetica;fontSize=12;fillColor=#d5e8d4;" vertex="1" parent="1">
          <mxGeometry x="-345" y="1639.75" width="60" height="30" as="geometry" />
        </mxCell>
        <mxCell id="8d_XzB5M4cLX104DX7Ex-66" value="Est TRL date" style="ellipse;whiteSpace=wrap;html=1;align=center;strokeColor=#82b366;verticalAlign=middle;fontFamily=Helvetica;fontSize=12;fillColor=#d5e8d4;" vertex="1" parent="1">
          <mxGeometry x="-275" y="1639.75" width="60" height="30" as="geometry" />
        </mxCell>
        <mxCell id="8d_XzB5M4cLX104DX7Ex-67" value="Device (name)" style="ellipse;whiteSpace=wrap;html=1;align=center;strokeColor=#82b366;verticalAlign=middle;fontFamily=Helvetica;fontSize=12;fillColor=#d5e8d4;" vertex="1" parent="1">
          <mxGeometry x="645" y="1299.5" width="60" height="30" as="geometry" />
        </mxCell>
        <mxCell id="8d_XzB5M4cLX104DX7Ex-68" value="Berth" style="ellipse;whiteSpace=wrap;html=1;align=center;strokeColor=#82b366;verticalAlign=middle;fontFamily=Helvetica;fontSize=12;fillColor=#d5e8d4;" vertex="1" parent="1">
          <mxGeometry x="715" y="1299.5" width="60" height="30" as="geometry" />
        </mxCell>
        <mxCell id="8d_XzB5M4cLX104DX7Ex-69" value="StartDate" style="ellipse;whiteSpace=wrap;html=1;align=center;strokeColor=#82b366;verticalAlign=middle;fontFamily=Helvetica;fontSize=12;fillColor=#d5e8d4;" vertex="1" parent="1">
          <mxGeometry x="645" y="1338" width="60" height="30" as="geometry" />
        </mxCell>
        <mxCell id="8d_XzB5M4cLX104DX7Ex-70" value="EndDate" style="ellipse;whiteSpace=wrap;html=1;align=center;strokeColor=#82b366;verticalAlign=middle;fontFamily=Helvetica;fontSize=12;fillColor=#d5e8d4;" vertex="1" parent="1">
          <mxGeometry x="715" y="1338" width="60" height="30" as="geometry" />
        </mxCell>
        <mxCell id="8d_XzB5M4cLX104DX7Ex-71" value="Deployments" style="whiteSpace=wrap;html=1;align=center;fillColor=#dae8fc;strokeColor=#6c8ebf;" vertex="1" parent="1">
          <mxGeometry x="660" y="1381" width="100" height="40" as="geometry" />
        </mxCell>
        <mxCell id="8d_XzB5M4cLX104DX7Ex-72" value="Position/Title" style="ellipse;whiteSpace=wrap;html=1;align=center;strokeColor=#82b366;verticalAlign=middle;fontFamily=Helvetica;fontSize=12;fillColor=#d5e8d4;" vertex="1" parent="1">
          <mxGeometry x="820" y="1254" width="60" height="30" as="geometry" />
        </mxCell>
        <mxCell id="8d_XzB5M4cLX104DX7Ex-73" value="Name" style="ellipse;whiteSpace=wrap;html=1;align=center;strokeColor=#82b366;verticalAlign=middle;fontFamily=Helvetica;fontSize=12;fillColor=#d5e8d4;" vertex="1" parent="1">
          <mxGeometry x="890" y="1254" width="60" height="30" as="geometry" />
        </mxCell>
        <mxCell id="8d_XzB5M4cLX104DX7Ex-74" value="website" style="ellipse;whiteSpace=wrap;html=1;align=center;strokeColor=#82b366;verticalAlign=middle;fontFamily=Helvetica;fontSize=12;fillColor=#d5e8d4;" vertex="1" parent="1">
          <mxGeometry x="820" y="1294.5" width="60" height="30" as="geometry" />
        </mxCell>
        <mxCell id="8d_XzB5M4cLX104DX7Ex-75" value="email" style="ellipse;whiteSpace=wrap;html=1;align=center;strokeColor=#82b366;verticalAlign=middle;fontFamily=Helvetica;fontSize=12;fillColor=#d5e8d4;" vertex="1" parent="1">
          <mxGeometry x="890" y="1294.5" width="60" height="30" as="geometry" />
        </mxCell>
        <mxCell id="8d_XzB5M4cLX104DX7Ex-76" value="Contacts" style="whiteSpace=wrap;html=1;align=center;fillColor=#dae8fc;strokeColor=#6c8ebf;" vertex="1" parent="1">
          <mxGeometry x="835" y="1379" width="100" height="40" as="geometry" />
        </mxCell>
        <mxCell id="8d_XzB5M4cLX104DX7Ex-77" value="phone" style="ellipse;whiteSpace=wrap;html=1;align=center;strokeColor=#82b366;verticalAlign=middle;fontFamily=Helvetica;fontSize=12;fillColor=#d5e8d4;" vertex="1" parent="1">
          <mxGeometry x="820" y="1334.5" width="60" height="30" as="geometry" />
        </mxCell>
        <mxCell id="8d_XzB5M4cLX104DX7Ex-78" value="&lt;u&gt;pjdb_id&lt;/u&gt;" style="ellipse;whiteSpace=wrap;html=1;align=center;strokeColor=#82b366;verticalAlign=middle;fontFamily=Helvetica;fontSize=12;fillColor=#d5e8d4;" vertex="1" parent="1">
          <mxGeometry x="296" y="989.5" width="60" height="30" as="geometry" />
        </mxCell>
        <mxCell id="8d_XzB5M4cLX104DX7Ex-79" value="this is meant to indicate &quot;organization&quot; vs &quot;Project&quot; vs &quot;Device&quot; etc" style="text;html=1;align=center;verticalAlign=middle;resizable=0;points=[];autosize=1;strokeColor=none;fillColor=none;" vertex="1" parent="1">
          <mxGeometry x="180" y="960" width="370" height="30" as="geometry" />
        </mxCell>
        <mxCell id="8d_XzB5M4cLX104DX7Ex-80" style="edgeStyle=orthogonalEdgeStyle;rounded=0;orthogonalLoop=1;jettySize=auto;html=1;exitX=0.5;exitY=0;exitDx=0;exitDy=0;" edge="1" parent="1" source="8d_XzB5M4cLX104DX7Ex-81">
          <mxGeometry relative="1" as="geometry">
            <mxPoint x="615" y="722" as="targetPoint" />
          </mxGeometry>
        </mxCell>
        <mxCell id="8d_XzB5M4cLX104DX7Ex-81" value="connects" style="shape=rhombus;perimeter=rhombusPerimeter;whiteSpace=wrap;html=1;align=center;fillColor=#fff2cc;strokeColor=#d6b656;" vertex="1" parent="1">
          <mxGeometry x="575" y="852" width="100" height="60" as="geometry" />
        </mxCell>
        <mxCell id="8d_XzB5M4cLX104DX7Ex-82" value="&lt;u&gt;kh_id&lt;/u&gt;" style="ellipse;whiteSpace=wrap;html=1;align=center;strokeColor=#82b366;verticalAlign=middle;fontFamily=Helvetica;fontSize=12;fillColor=#d5e8d4;" vertex="1" parent="1">
          <mxGeometry x="695" y="867" width="60" height="30" as="geometry" />
        </mxCell>
        <mxCell id="8d_XzB5M4cLX104DX7Ex-83" value="&lt;u&gt;entity_id&lt;/u&gt;" style="ellipse;whiteSpace=wrap;html=1;align=center;strokeColor=#82b366;verticalAlign=middle;fontFamily=Helvetica;fontSize=12;fillColor=#d5e8d4;" vertex="1" parent="1">
          <mxGeometry x="695" y="822" width="60" height="30" as="geometry" />
        </mxCell>
        <mxCell id="8d_XzB5M4cLX104DX7Ex-84" value="&lt;u&gt;entity_id&lt;/u&gt;" style="ellipse;whiteSpace=wrap;html=1;align=center;strokeColor=#82b366;verticalAlign=middle;fontFamily=Helvetica;fontSize=12;fillColor=#d5e8d4;" vertex="1" parent="1">
          <mxGeometry x="200" y="1042" width="60" height="30" as="geometry" />
        </mxCell>
        <mxCell id="8d_XzB5M4cLX104DX7Ex-85" value="org_id" style="ellipse;whiteSpace=wrap;html=1;align=center;strokeColor=#82b366;verticalAlign=middle;fontFamily=Helvetica;fontSize=12;fillColor=#d5e8d4;" vertex="1" parent="1">
          <mxGeometry x="705" y="912" width="60" height="30" as="geometry" />
        </mxCell>
        <mxCell id="8d_XzB5M4cLX104DX7Ex-86" value="orgs" style="text;html=1;align=center;verticalAlign=middle;resizable=0;points=[];autosize=1;strokeColor=none;fillColor=none;" vertex="1" parent="1">
          <mxGeometry x="580" y="640" width="50" height="30" as="geometry" />
        </mxCell>
        <mxCell id="8d_XzB5M4cLX104DX7Ex-87" value="Name" style="ellipse;whiteSpace=wrap;html=1;align=center;strokeColor=#82b366;verticalAlign=middle;fontFamily=Helvetica;fontSize=12;fillColor=#d5e8d4;" vertex="1" parent="1">
          <mxGeometry x="1190" y="1389.5" width="60" height="30" as="geometry" />
        </mxCell>
        <mxCell id="8d_XzB5M4cLX104DX7Ex-88" value="Website" style="ellipse;whiteSpace=wrap;html=1;align=center;strokeColor=#82b366;verticalAlign=middle;fontFamily=Helvetica;fontSize=12;fillColor=#d5e8d4;" vertex="1" parent="1">
          <mxGeometry x="1260" y="1389.5" width="60" height="30" as="geometry" />
        </mxCell>
        <mxCell id="8d_XzB5M4cLX104DX7Ex-89" value="type" style="ellipse;whiteSpace=wrap;html=1;align=center;strokeColor=#82b366;verticalAlign=middle;fontFamily=Helvetica;fontSize=12;fillColor=#d5e8d4;" vertex="1" parent="1">
          <mxGeometry x="1165" y="1539.5" width="60" height="30" as="geometry" />
        </mxCell>
        <mxCell id="8d_XzB5M4cLX104DX7Ex-90" value="twitter" style="ellipse;whiteSpace=wrap;html=1;align=center;strokeColor=#82b366;verticalAlign=middle;fontFamily=Helvetica;fontSize=12;fillColor=#d5e8d4;" vertex="1" parent="1">
          <mxGeometry x="1445" y="1497" width="60" height="30" as="geometry" />
        </mxCell>
        <mxCell id="8d_XzB5M4cLX104DX7Ex-91" value="abbreviation" style="ellipse;whiteSpace=wrap;html=1;align=center;strokeColor=#82b366;verticalAlign=middle;fontFamily=Helvetica;fontSize=12;fillColor=#d5e8d4;" vertex="1" parent="1">
          <mxGeometry x="1305" y="1497" width="60" height="30" as="geometry" />
        </mxCell>
        <mxCell id="8d_XzB5M4cLX104DX7Ex-92" value="logo (file)" style="ellipse;whiteSpace=wrap;html=1;align=center;strokeColor=#82b366;verticalAlign=middle;fontFamily=Helvetica;fontSize=12;fillColor=#d5e8d4;" vertex="1" parent="1">
          <mxGeometry x="1375" y="1497" width="60" height="30" as="geometry" />
        </mxCell>
        <mxCell id="8d_XzB5M4cLX104DX7Ex-93" value="sector" style="ellipse;whiteSpace=wrap;html=1;align=center;strokeColor=#82b366;verticalAlign=middle;fontFamily=Helvetica;fontSize=12;fillColor=#d5e8d4;" vertex="1" parent="1">
          <mxGeometry x="1305" y="1539.5" width="60" height="30" as="geometry" />
        </mxCell>
        <mxCell id="8d_XzB5M4cLX104DX7Ex-94" value="company groups" style="ellipse;whiteSpace=wrap;html=1;align=center;strokeColor=#82b366;verticalAlign=middle;fontFamily=Helvetica;fontSize=12;fillColor=#d5e8d4;" vertex="1" parent="1">
          <mxGeometry x="1235" y="1539.5" width="60" height="30" as="geometry" />
        </mxCell>
        <mxCell id="8d_XzB5M4cLX104DX7Ex-95" value="phone number" style="ellipse;whiteSpace=wrap;html=1;align=center;strokeColor=#82b366;verticalAlign=middle;fontFamily=Helvetica;fontSize=12;fillColor=#d5e8d4;" vertex="1" parent="1">
          <mxGeometry x="1235" y="1581.5" width="60" height="30" as="geometry" />
        </mxCell>
        <mxCell id="8d_XzB5M4cLX104DX7Ex-96" value="num employees" style="ellipse;whiteSpace=wrap;html=1;align=center;strokeColor=#82b366;verticalAlign=middle;fontFamily=Helvetica;fontSize=12;fillColor=#d5e8d4;" vertex="1" parent="1">
          <mxGeometry x="1165" y="1581.5" width="60" height="30" as="geometry" />
        </mxCell>
        <mxCell id="8d_XzB5M4cLX104DX7Ex-97" value="status" style="ellipse;whiteSpace=wrap;html=1;align=center;strokeColor=#82b366;verticalAlign=middle;fontFamily=Helvetica;fontSize=12;fillColor=#d5e8d4;" vertex="1" parent="1">
          <mxGeometry x="1400" y="1389.5" width="60" height="30" as="geometry" />
        </mxCell>
        <mxCell id="8d_XzB5M4cLX104DX7Ex-98" value="address" style="ellipse;whiteSpace=wrap;html=1;align=center;strokeColor=#82b366;verticalAlign=middle;fontFamily=Helvetica;fontSize=12;fillColor=#d5e8d4;" vertex="1" parent="1">
          <mxGeometry x="1375" y="1581.5" width="60" height="30" as="geometry" />
        </mxCell>
        <mxCell id="8d_XzB5M4cLX104DX7Ex-99" value="city" style="ellipse;whiteSpace=wrap;html=1;align=center;strokeColor=#82b366;verticalAlign=middle;fontFamily=Helvetica;fontSize=12;fillColor=#d5e8d4;" vertex="1" parent="1">
          <mxGeometry x="1445" y="1579.5" width="60" height="30" as="geometry" />
        </mxCell>
        <mxCell id="8d_XzB5M4cLX104DX7Ex-100" value="References" style="ellipse;whiteSpace=wrap;html=1;align=center;strokeColor=#82b366;verticalAlign=middle;fontFamily=Helvetica;fontSize=12;fillColor=#d5e8d4;" vertex="1" parent="1">
          <mxGeometry x="1305" y="1581.5" width="60" height="30" as="geometry" />
        </mxCell>
        <mxCell id="8d_XzB5M4cLX104DX7Ex-101" value="technology" style="ellipse;whiteSpace=wrap;html=1;align=center;strokeColor=#82b366;verticalAlign=middle;fontFamily=Helvetica;fontSize=12;fillColor=#d5e8d4;" vertex="1" parent="1">
          <mxGeometry x="1375" y="1539.5" width="60" height="30" as="geometry" />
        </mxCell>
        <mxCell id="8d_XzB5M4cLX104DX7Ex-102" value="facebook" style="ellipse;whiteSpace=wrap;html=1;align=center;strokeColor=#82b366;verticalAlign=middle;fontFamily=Helvetica;fontSize=12;fillColor=#d5e8d4;" vertex="1" parent="1">
          <mxGeometry x="1515" y="1497" width="60" height="30" as="geometry" />
        </mxCell>
        <mxCell id="8d_XzB5M4cLX104DX7Ex-103" value="Year founded" style="ellipse;whiteSpace=wrap;html=1;align=center;strokeColor=#82b366;verticalAlign=middle;fontFamily=Helvetica;fontSize=12;fillColor=#d5e8d4;" vertex="1" parent="1">
          <mxGeometry x="1515" y="1539.5" width="60" height="30" as="geometry" />
        </mxCell>
        <mxCell id="8d_XzB5M4cLX104DX7Ex-104" value="Product" style="ellipse;whiteSpace=wrap;html=1;align=center;strokeColor=#82b366;verticalAlign=middle;fontFamily=Helvetica;fontSize=12;fillColor=#d5e8d4;" vertex="1" parent="1">
          <mxGeometry x="1445" y="1539.5" width="60" height="30" as="geometry" />
        </mxCell>
        <mxCell id="8d_XzB5M4cLX104DX7Ex-105" value="coordinates" style="ellipse;whiteSpace=wrap;html=1;align=center;strokeColor=#82b366;verticalAlign=middle;fontFamily=Helvetica;fontSize=12;fillColor=#d5e8d4;" vertex="1" parent="1">
          <mxGeometry x="1575" y="1459.5" width="60" height="30" as="geometry" />
        </mxCell>
        <mxCell id="8d_XzB5M4cLX104DX7Ex-106" value="Subsidiary Organization(s)" style="ellipse;whiteSpace=wrap;html=1;align=center;strokeColor=#82b366;verticalAlign=middle;fontFamily=Helvetica;fontSize=12;fillColor=#d5e8d4;" vertex="1" parent="1">
          <mxGeometry x="1236" y="1636.5" width="60" height="30" as="geometry" />
        </mxCell>
        <mxCell id="8d_XzB5M4cLX104DX7Ex-107" value="Parent/Holding Organization" style="ellipse;whiteSpace=wrap;html=1;align=center;strokeColor=#82b366;verticalAlign=middle;fontFamily=Helvetica;fontSize=12;fillColor=#d5e8d4;" vertex="1" parent="1">
          <mxGeometry x="1166" y="1636.5" width="60" height="30" as="geometry" />
        </mxCell>
        <mxCell id="8d_XzB5M4cLX104DX7Ex-108" value="Partner Organization(s)" style="ellipse;whiteSpace=wrap;html=1;align=center;strokeColor=#82b366;verticalAlign=middle;fontFamily=Helvetica;fontSize=12;fillColor=#d5e8d4;" vertex="1" parent="1">
          <mxGeometry x="1306" y="1636.5" width="60" height="30" as="geometry" />
        </mxCell>
        <mxCell id="8d_XzB5M4cLX104DX7Ex-109" value="NREL Partner" style="ellipse;whiteSpace=wrap;html=1;align=center;strokeColor=#82b366;verticalAlign=middle;fontFamily=Helvetica;fontSize=12;fillColor=#d5e8d4;" vertex="1" parent="1">
          <mxGeometry x="1376" y="1636.5" width="60" height="30" as="geometry" />
        </mxCell>
        <mxCell id="8d_XzB5M4cLX104DX7Ex-110" value="American-made network" style="ellipse;whiteSpace=wrap;html=1;align=center;strokeColor=#82b366;verticalAlign=middle;fontFamily=Helvetica;fontSize=12;fillColor=#d5e8d4;" vertex="1" parent="1">
          <mxGeometry x="1446" y="1634.5" width="60" height="30" as="geometry" />
        </mxCell>
        <mxCell id="8d_XzB5M4cLX104DX7Ex-111" value="state" style="ellipse;whiteSpace=wrap;html=1;align=center;strokeColor=#82b366;verticalAlign=middle;fontFamily=Helvetica;fontSize=12;fillColor=#d5e8d4;" vertex="1" parent="1">
          <mxGeometry x="1515" y="1579.5" width="60" height="30" as="geometry" />
        </mxCell>
        <mxCell id="8d_XzB5M4cLX104DX7Ex-112" value="Article Text" style="ellipse;whiteSpace=wrap;html=1;align=center;strokeColor=#82b366;verticalAlign=middle;fontFamily=Helvetica;fontSize=12;fillColor=#d5e8d4;" vertex="1" parent="1">
          <mxGeometry x="1330" y="1389.5" width="60" height="30" as="geometry" />
        </mxCell>
        <mxCell id="8d_XzB5M4cLX104DX7Ex-113" value="fields from &quot;Organization&quot; taht are to be used in &quot;entity&quot;" style="text;html=1;align=center;verticalAlign=middle;resizable=0;points=[];autosize=1;strokeColor=none;fillColor=none;" vertex="1" parent="1">
          <mxGeometry x="1260" y="1354" width="320" height="30" as="geometry" />
        </mxCell>
        <mxCell id="8d_XzB5M4cLX104DX7Ex-114" style="edgeStyle=orthogonalEdgeStyle;rounded=0;orthogonalLoop=1;jettySize=auto;html=1;exitX=0.5;exitY=1;exitDx=0;exitDy=0;entryX=0;entryY=0.5;entryDx=0;entryDy=0;shape=flexArrow;" edge="1" parent="1" source="8d_XzB5M4cLX104DX7Ex-115" target="8d_XzB5M4cLX104DX7Ex-19">
          <mxGeometry relative="1" as="geometry" />
        </mxCell>
        <mxCell id="8d_XzB5M4cLX104DX7Ex-115" value="" style="rounded=0;whiteSpace=wrap;html=1;fillColor=none;" vertex="1" parent="1">
          <mxGeometry x="830" y="1374" width="110" height="50" as="geometry" />
        </mxCell>
        <mxCell id="8d_XzB5M4cLX104DX7Ex-116" style="edgeStyle=orthogonalEdgeStyle;rounded=0;orthogonalLoop=1;jettySize=auto;html=1;exitX=0.5;exitY=1;exitDx=0;exitDy=0;entryX=1;entryY=0.5;entryDx=0;entryDy=0;shape=flexArrow;" edge="1" parent="1" source="8d_XzB5M4cLX104DX7Ex-117" target="8d_XzB5M4cLX104DX7Ex-42">
          <mxGeometry relative="1" as="geometry">
            <Array as="points">
              <mxPoint x="710" y="1540" />
              <mxPoint x="780" y="1540" />
              <mxPoint x="780" y="1689" />
            </Array>
          </mxGeometry>
        </mxCell>
        <mxCell id="8d_XzB5M4cLX104DX7Ex-117" value="" style="rounded=0;whiteSpace=wrap;html=1;fillColor=none;" vertex="1" parent="1">
          <mxGeometry x="655" y="1376" width="110" height="50" as="geometry" />
        </mxCell>
        <mxCell id="8d_XzB5M4cLX104DX7Ex-118" style="edgeStyle=orthogonalEdgeStyle;rounded=0;orthogonalLoop=1;jettySize=auto;html=1;exitX=0;exitY=0.5;exitDx=0;exitDy=0;entryX=0.75;entryY=1;entryDx=0;entryDy=0;" edge="1" parent="1" source="8d_XzB5M4cLX104DX7Ex-119" target="8d_XzB5M4cLX104DX7Ex-30">
          <mxGeometry relative="1" as="geometry" />
        </mxCell>
        <mxCell id="8d_XzB5M4cLX104DX7Ex-119" value="deployed" style="shape=rhombus;perimeter=rhombusPerimeter;whiteSpace=wrap;html=1;align=center;fillColor=#fff2cc;strokeColor=#d6b656;" vertex="1" parent="1">
          <mxGeometry x="-100" y="1780" width="100" height="60" as="geometry" />
        </mxCell>
        <mxCell id="8d_XzB5M4cLX104DX7Ex-120" style="edgeStyle=orthogonalEdgeStyle;rounded=0;orthogonalLoop=1;jettySize=auto;html=1;exitX=1;exitY=0.5;exitDx=0;exitDy=0;entryX=0.25;entryY=1;entryDx=0;entryDy=0;" edge="1" parent="1" source="8d_XzB5M4cLX104DX7Ex-121" target="8d_XzB5M4cLX104DX7Ex-42">
          <mxGeometry relative="1" as="geometry">
            <Array as="points">
              <mxPoint x="450" y="1890" />
            </Array>
          </mxGeometry>
        </mxCell>
        <mxCell id="8d_XzB5M4cLX104DX7Ex-121" value="test" style="shape=rhombus;perimeter=rhombusPerimeter;whiteSpace=wrap;html=1;align=center;fillColor=#fff2cc;strokeColor=#d6b656;" vertex="1" parent="1">
          <mxGeometry x="70" y="1860" width="100" height="60" as="geometry" />
        </mxCell>
        <mxCell id="8d_XzB5M4cLX104DX7Ex-122" style="edgeStyle=orthogonalEdgeStyle;rounded=0;orthogonalLoop=1;jettySize=auto;html=1;exitX=0;exitY=0.5;exitDx=0;exitDy=0;entryX=0.75;entryY=1;entryDx=0;entryDy=0;" edge="1" parent="1" source="8d_XzB5M4cLX104DX7Ex-123" target="8d_XzB5M4cLX104DX7Ex-41">
          <mxGeometry relative="1" as="geometry">
            <Array as="points">
              <mxPoint x="235" y="1860" />
            </Array>
          </mxGeometry>
        </mxCell>
        <mxCell id="8d_XzB5M4cLX104DX7Ex-123" value="implement" style="shape=rhombus;perimeter=rhombusPerimeter;whiteSpace=wrap;html=1;align=center;fillColor=#fff2cc;strokeColor=#d6b656;" vertex="1" parent="1">
          <mxGeometry x="605" y="1830" width="100" height="60" as="geometry" />
        </mxCell>
        <mxCell id="8d_XzB5M4cLX104DX7Ex-124" style="edgeStyle=orthogonalEdgeStyle;rounded=0;orthogonalLoop=1;jettySize=auto;html=1;exitX=0;exitY=0.5;exitDx=0;exitDy=0;entryX=0.75;entryY=1;entryDx=0;entryDy=0;" edge="1" parent="1" source="8d_XzB5M4cLX104DX7Ex-125" target="8d_XzB5M4cLX104DX7Ex-42">
          <mxGeometry relative="1" as="geometry" />
        </mxCell>
        <mxCell id="8d_XzB5M4cLX104DX7Ex-125" value="manage" style="shape=rhombus;perimeter=rhombusPerimeter;whiteSpace=wrap;html=1;align=center;fillColor=#fff2cc;strokeColor=#d6b656;" vertex="1" parent="1">
          <mxGeometry x="790" y="1779.5" width="100" height="60" as="geometry" />
        </mxCell>
        <mxCell id="8d_XzB5M4cLX104DX7Ex-126" style="edgeStyle=orthogonalEdgeStyle;rounded=0;orthogonalLoop=1;jettySize=auto;html=1;exitX=1;exitY=0.5;exitDx=0;exitDy=0;entryX=0.75;entryY=1;entryDx=0;entryDy=0;" edge="1" parent="1" source="8d_XzB5M4cLX104DX7Ex-128" target="8d_XzB5M4cLX104DX7Ex-19">
          <mxGeometry relative="1" as="geometry">
            <mxPoint x="1090" y="1750" as="targetPoint" />
          </mxGeometry>
        </mxCell>
        <mxCell id="8d_XzB5M4cLX104DX7Ex-127" style="edgeStyle=orthogonalEdgeStyle;rounded=0;orthogonalLoop=1;jettySize=auto;html=1;exitX=0;exitY=0.5;exitDx=0;exitDy=0;entryX=0.25;entryY=1;entryDx=0;entryDy=0;" edge="1" parent="1" source="8d_XzB5M4cLX104DX7Ex-128" target="8d_XzB5M4cLX104DX7Ex-30">
          <mxGeometry relative="1" as="geometry" />
        </mxCell>
        <mxCell id="8d_XzB5M4cLX104DX7Ex-128" value="develop" style="shape=rhombus;perimeter=rhombusPerimeter;whiteSpace=wrap;html=1;align=center;fillColor=#fff2cc;strokeColor=#d6b656;" vertex="1" parent="1">
          <mxGeometry x="345" y="1899.5" width="100" height="60" as="geometry" />
        </mxCell>
      </root>
    </mxGraphModel>
  </diagram>
</mxfile>
